# Blender v2.74 (sub 0) OBJ File: 'fridge.blend'
# www.blender.org
mtllib fridge.mtl
o Cube
v 0.300000 -0.000000 -0.334000
v -0.300000 -0.000000 -0.334000
v 0.300001 1.790000 -0.334000
v -0.300000 1.790000 -0.334000
v 0.300000 -0.000000 0.197751
v 0.300000 -0.000000 0.225517
v -0.300000 -0.000000 0.225517
v -0.300000 -0.000000 0.197750
v 0.300000 1.790000 0.197751
v 0.300000 1.790000 0.225518
v -0.300000 1.790000 0.225517
v -0.300000 1.790000 0.197750
v 0.280966 0.019034 0.197750
v 0.280966 0.019034 0.225517
v -0.280966 0.019034 0.225517
v -0.280966 0.019034 0.197750
v 0.280966 1.770966 0.197751
v 0.280966 1.770966 0.225518
v -0.280966 1.770966 0.225517
v -0.280966 1.770966 0.197750
v 0.300000 -0.000000 0.323200
v 0.299999 1.790000 0.323201
v -0.300000 -0.000000 0.323200
v -0.300000 1.790000 0.323200
v -0.300000 0.895000 0.323200
v 0.300000 0.895000 0.323200
v -0.000000 1.790000 0.323200
v -0.000000 -0.000000 0.323200
vt 0.581674 0.808756
vt 0.398231 0.808756
vt 0.398231 0.191244
vt 0.191244 0.191244
vt 0.597277 0.041500
vt 0.630976 0.350256
vt 0.597277 0.659012
vt 0.597278 0.731025
vt 0.603844 0.724459
vt 0.797698 0.724458
vt 0.191244 0.808756
vt 0.007802 0.808756
vt 0.007802 0.191244
vt 0.804264 0.708313
vt 0.797698 0.714880
vt 0.603844 0.714880
vt 0.398231 0.992198
vt 0.597278 0.746629
vt 0.804264 0.746629
vt 0.797698 0.753195
vt 0.191244 0.007802
vt 0.398232 0.007802
vt 0.597277 0.769340
vt 0.603844 0.762774
vt 0.797698 0.762774
vt 0.905181 0.525593
vt 0.896300 0.525608
vt 0.896242 0.016852
vt 0.947677 0.525593
vt 0.938796 0.525608
vt 0.938737 0.016852
vt 0.603844 0.753195
vt 0.929761 0.011374
vt 0.956653 0.531071
vt 0.947618 0.016837
vt 0.887265 0.011374
vt 0.914157 0.531071
vt 0.905122 0.016837
vt 0.871662 0.041500
vt 0.871661 0.659012
vt 0.837963 0.350256
vt 0.837963 0.692710
vt 0.630976 0.692710
vt 0.734469 0.659012
vt 0.837963 0.007802
vt 0.837963 0.041500
vt 0.734469 0.041500
vt 0.581674 0.191244
vt 0.630976 0.041500
vt 0.630976 0.659012
vt 0.804264 0.731024
vt 0.597277 0.708314
vt 0.191244 0.992198
vt 0.804265 0.769340
vt 0.929761 0.534644
vt 0.956653 0.007802
vt 0.887265 0.534643
vt 0.914158 0.007802
vt 0.837963 0.659012
vt 0.630976 0.007802
vn -0.577300 0.577300 0.577300
vn -0.577300 0.577300 -0.577300
vn -0.577300 -0.577300 -0.577300
vn 0.577300 -0.577300 -0.577300
vn -0.707100 0.000000 0.707100
vn -0.301500 0.301500 0.904500
vn 0.301500 0.301500 0.904500
vn 0.577300 0.577300 -0.577300
vn 0.577300 0.577300 0.577300
vn 0.577300 -0.577300 0.577300
vn 0.301500 0.301500 -0.904500
vn -0.301500 0.301500 -0.904500
vn -0.577300 -0.577300 0.577300
vn 0.301500 -0.301500 0.904500
vn -0.301500 -0.301500 -0.904500
vn 0.301500 -0.301500 -0.904500
vn -0.301500 -0.301500 0.904500
vn 0.707100 0.000000 0.707100
vn 0.000000 0.707100 0.707100
vn 0.000000 -0.707100 0.707100
usemtl Material
s 1
f 12/1/1 4/2/2 2/3/3
f 1/4/4 2/3/3 4/2/2
f 7/5/3 25/6/5 11/7/2
f 12/8/1 20/9/6 17/10/7
f 3/11/8 9/12/9 5/13/10
f 10/14/8 18/15/11 19/16/12
f 3/11/8 4/2/2 12/17/1
f 8/18/13 5/19/10 13/20/14
f 5/21/10 8/22/13 2/3/3
f 7/23/3 15/24/15 14/25/16
f 19/26/12 20/27/6 16/28/17
f 17/29/7 18/30/11 14/31/16
f 20/9/6 19/16/12 18/15/11
f 14/25/16 15/24/15 16/32/17
f 6/33/4 14/31/16 18/30/11
f 9/34/9 17/29/7 13/35/14
f 8/36/13 16/28/17 20/27/6
f 11/37/2 19/26/12 15/38/15
f 6/39/4 10/40/8 26/41/18
f 10/42/8 11/43/2 27/44/19
f 6/45/4 21/46/10 28/47/20
f 26/41/18 25/6/5 28/47/20
f 8/48/13 12/1/1 2/3/3
f 3/11/8 1/4/4 4/2/2
f 25/6/5 7/5/3 23/49/13
f 25/6/5 24/50/1 11/7/2
f 9/51/9 12/8/1 17/10/7
f 1/4/4 3/11/8 5/13/10
f 11/52/2 10/14/8 19/16/12
f 9/53/9 3/11/8 12/17/1
f 16/32/17 8/18/13 13/20/14
f 1/4/4 5/21/10 2/3/3
f 6/54/4 7/23/3 14/25/16
f 15/38/15 19/26/12 16/28/17
f 13/35/14 17/29/7 14/31/16
f 17/10/7 20/9/6 18/15/11
f 13/20/14 14/25/16 16/32/17
f 10/55/8 6/33/4 18/30/11
f 5/56/10 9/34/9 13/35/14
f 12/57/1 8/36/13 20/27/6
f 7/58/3 11/37/2 15/38/15
f 26/41/18 21/46/10 6/39/4
f 10/40/8 22/59/9 26/41/18
f 27/44/19 22/59/9 10/42/8
f 11/43/2 24/50/1 27/44/19
f 28/47/20 7/60/3 6/45/4
f 7/60/3 28/47/20 23/49/13
f 25/6/5 27/44/19 24/50/1
f 27/44/19 26/41/18 22/59/9
f 26/41/18 28/47/20 21/46/10
f 28/47/20 25/6/5 23/49/13
f 25/6/5 26/41/18 27/44/19
