# Blender v2.74 (sub 0) OBJ File: 'fridge.blend'
# www.blender.org
mtllib fridge.mtl
o Cube
v 0.300000 -0.000000 0.197751
v 0.300000 -0.000000 0.225517
v -0.300000 -0.000000 0.225517
v -0.300000 -0.000000 0.197750
v 0.280966 0.019034 0.197750
v 0.280966 0.019034 0.225517
v -0.280966 0.019034 0.225517
v -0.280966 0.019034 0.197750
v -0.000000 -0.000000 0.323200
v 0.300000 1.711031 0.197751
v 0.221031 1.790000 0.197751
v 0.276870 1.766871 0.197751
v 0.300000 1.711031 0.225518
v 0.221031 1.790000 0.225518
v 0.276870 1.766871 0.225518
v -0.300000 1.711031 0.225517
v -0.221032 1.790000 0.225517
v -0.276871 1.766871 0.225517
v -0.221032 1.790000 0.197750
v -0.300000 1.711031 0.197750
v -0.276871 1.766871 0.197750
v 0.201997 1.770966 0.197751
v 0.280966 1.691998 0.197751
v 0.257837 1.747837 0.197751
v 0.280966 1.691998 0.225518
v 0.201997 1.770966 0.225517
v 0.257836 1.747837 0.225518
v -0.201998 1.770966 0.225517
v -0.280966 1.691998 0.225517
v -0.257837 1.747837 0.225517
v -0.280966 1.691997 0.197750
v -0.201998 1.770966 0.197751
v -0.257837 1.747837 0.197750
v 0.300000 -0.000000 0.253812
v 0.230612 -0.000000 0.323200
v 0.279677 -0.000000 0.302877
v 0.230611 1.720612 0.323200
v 0.300000 1.711031 0.253813
v 0.221031 1.790000 0.253813
v 0.281660 1.715822 0.302877
v 0.268648 1.758649 0.293874
v 0.274886 1.764886 0.253813
v 0.225821 1.771661 0.302877
v -0.230612 -0.000000 0.323200
v -0.300000 -0.000000 0.253812
v -0.279677 -0.000000 0.302877
v -0.230612 1.720612 0.323200
v -0.221032 1.790000 0.253812
v -0.300000 1.711031 0.253812
v -0.225822 1.771661 0.302877
v -0.268649 1.758649 0.293873
v -0.274887 1.764886 0.253812
v -0.281661 1.715822 0.302876
v -0.230612 0.895000 0.323200
v -0.300000 0.895000 0.253812
v -0.279677 0.895000 0.302877
v 0.230612 0.895000 0.323200
v 0.300000 0.895000 0.253812
v 0.279676 0.895000 0.302877
v -0.000000 1.720612 0.323200
v -0.000000 1.790000 0.253812
v -0.000000 1.769677 0.302877
v 0.300000 0.012458 -0.314948
v 0.300000 -0.000000 -0.302489
v 0.287542 -0.000000 -0.314948
v 0.292807 0.007193 -0.322141
v 0.288141 0.011859 -0.326807
v 0.268489 0.019052 -0.334000
v 0.280948 0.031511 -0.334000
v -0.300000 -0.000000 -0.302490
v -0.300000 0.012458 -0.314948
v -0.292807 0.007193 -0.322141
v -0.287541 -0.000000 -0.314948
v -0.280947 0.031511 -0.334000
v -0.268489 0.019052 -0.334000
v -0.288140 0.011859 -0.326808
v 0.208574 1.790000 -0.314947
v 0.221032 1.790000 -0.302489
v 0.232542 1.785232 -0.314947
v 0.219297 1.781276 -0.323671
v 0.204784 1.770948 -0.334000
v 0.218977 1.779671 -0.325276
v 0.228752 1.766180 -0.334000
v 0.291277 1.709296 -0.323671
v 0.295233 1.722541 -0.314947
v 0.300000 1.711031 -0.302489
v 0.300000 1.698573 -0.314947
v 0.280948 1.694783 -0.334000
v 0.276181 1.718752 -0.334000
v 0.289672 1.708977 -0.325276
v 0.270401 1.760400 -0.323402
v 0.265361 1.771638 -0.314947
v 0.276871 1.766871 -0.302489
v 0.281639 1.755361 -0.314947
v 0.267057 1.740779 -0.334000
v 0.250779 1.757056 -0.334000
v 0.268760 1.758759 -0.325545
v -0.300000 1.698573 -0.314948
v -0.300000 1.711031 -0.302489
v -0.295232 1.722541 -0.314948
v -0.291276 1.709296 -0.323671
v -0.280948 1.694783 -0.334000
v -0.289671 1.708977 -0.325277
v -0.276180 1.718752 -0.334000
v -0.219296 1.781276 -0.323671
v -0.232542 1.785232 -0.314948
v -0.221031 1.790000 -0.302489
v -0.208573 1.790000 -0.314948
v -0.204783 1.770948 -0.334000
v -0.228752 1.766180 -0.334000
v -0.218977 1.779671 -0.325276
v -0.281638 1.755361 -0.314948
v -0.276871 1.766871 -0.302489
v -0.265361 1.771638 -0.314948
v -0.270400 1.760400 -0.323402
v -0.267056 1.740779 -0.334000
v -0.268759 1.758759 -0.325546
v -0.250779 1.757056 -0.334000
vt 0.624520 0.731025
vt 0.631086 0.724459
vt 0.770456 0.724459
vt 0.396587 0.785484
vt 0.390014 0.784177
vt 0.394668 0.780805
vt 0.914157 0.507986
vt 0.905178 0.502661
vt 0.905122 0.016837
vt 0.956653 0.507986
vt 0.947674 0.502661
vt 0.947618 0.016837
vt 0.197579 0.796806
vt 0.202609 0.791776
vt 0.202022 0.797979
vt 0.871662 0.041500
vt 0.871661 0.631769
vt 0.861900 0.350256
vt 0.224092 0.802184
vt 0.222785 0.815329
vt 0.219195 0.808202
vt 0.597278 0.746629
vt 0.804264 0.746629
vt 0.797698 0.753195
vt 0.393934 0.184672
vt 0.191244 0.007802
vt 0.398232 0.007802
vt 0.597277 0.769340
vt 0.603844 0.762774
vt 0.797698 0.762774
vt 0.654913 0.350256
vt 0.734469 0.041500
vt 0.814026 0.350256
vt 0.631086 0.714880
vt 0.770456 0.714880
vt 0.896298 0.502675
vt 0.603844 0.753195
vt 0.810720 0.692710
vt 0.658218 0.692710
vt 0.734469 0.682949
vt 0.929761 0.011374
vt 0.938737 0.016852
vt 0.938794 0.502676
vt 0.887265 0.011374
vt 0.896242 0.016852
vt 0.597277 0.041500
vt 0.607038 0.350256
vt 0.597277 0.631769
vt 0.777022 0.708313
vt 0.837963 0.007802
vt 0.814026 0.041500
vt 0.814025 0.635074
vt 0.838305 0.633422
vt 0.827147 0.648196
vt 0.861900 0.631769
vt 0.861900 0.650348
vt 0.848080 0.648196
vt 0.810720 0.682949
vt 0.812373 0.659354
vt 0.827147 0.669129
vt 0.654913 0.635074
vt 0.656566 0.659354
vt 0.641791 0.648196
vt 0.658218 0.682949
vt 0.639639 0.682949
vt 0.641791 0.669129
vt 0.607038 0.631769
vt 0.630634 0.633422
vt 0.620859 0.648196
vt 0.214516 0.815329
vt 0.218487 0.819627
vt 0.199223 0.819626
vt 0.386282 0.802422
vt 0.381251 0.797391
vt 0.387454 0.797979
vt 0.638955 0.692710
vt 0.607038 0.650348
vt 0.597277 0.651033
vt 0.789719 0.714880
vt 0.938796 0.518891
vt 0.611823 0.724459
vt 0.905180 0.518876
vt 0.896300 0.518891
vt 0.913953 0.524428
vt 0.905489 0.519384
vt 0.612230 0.714868
vt 0.605257 0.707895
vt 0.624520 0.708314
vt 0.929874 0.508158
vt 0.938400 0.523047
vt 0.790193 0.714879
vt 0.956596 0.527528
vt 0.947618 0.522176
vt 0.789719 0.724477
vt 0.796285 0.731043
vt 0.777022 0.731025
vt 0.887265 0.508606
vt 0.896081 0.518950
vt 0.829299 0.682949
vt 0.607038 0.041500
vt 0.633313 0.039163
vt 0.630976 0.350256
vt 0.654913 0.041500
vt 0.835626 0.039163
vt 0.837963 0.350256
vt 0.861901 0.041500
vt 0.734469 0.635074
vt 0.734469 0.659012
vt 0.391659 0.775908
vt 0.197817 0.775908
vt 0.007802 0.191244
vt 0.184672 0.195542
vt 0.007802 0.781514
vt 0.370989 0.992198
vt 0.370989 0.819626
vt 0.390252 0.819627
vt 0.581674 0.800777
vt 0.409102 0.800777
vt 0.409102 0.781514
vt 0.366691 0.815329
vt 0.184672 0.796806
vt 0.180374 0.800777
vt 0.180374 0.781514
vt 0.214516 0.807111
vt 0.215823 0.800539
vt 0.219195 0.805193
vt 0.387361 0.197817
vt 0.394140 0.192854
vt 0.581674 0.191244
vt 0.581674 0.781514
vt 0.404804 0.777216
vt 0.397678 0.780805
vt 0.197817 0.202115
vt 0.192854 0.195335
vt 0.391897 0.796806
vt 0.388020 0.798545
vt 0.386867 0.791776
vt 0.395222 0.780915
vt 0.914158 0.011739
vt 0.956653 0.011024
vt 0.192889 0.785484
vt 0.194254 0.780915
vt 0.194807 0.780805
vt 0.201456 0.798545
vt 0.199462 0.784177
vt 0.370280 0.808202
vt 0.370390 0.809310
vt 0.365384 0.802183
vt 0.219085 0.809310
vt 0.195542 0.184672
vt 0.398231 0.180374
vt 0.191244 0.180374
vt 0.804265 0.769340
vt 0.630976 0.007802
vt 0.630976 0.017563
vt 0.837963 0.017563
vt 0.203194 0.815329
vt 0.218487 0.992198
vt 0.199223 0.992198
vt 0.374960 0.807111
vt 0.370390 0.805747
vt 0.370280 0.805193
vt 0.373652 0.800539
vt 0.947676 0.518876
vt 0.611823 0.714880
vt 0.928649 0.532668
vt 0.796285 0.708295
vt 0.887048 0.527860
vt 0.605257 0.731054
vt 0.829984 0.692710
vt 0.871661 0.651033
vt 0.391659 0.202115
vt 0.202115 0.197817
vt 0.208224 0.797391
vt 0.180374 0.191244
vt 0.184672 0.777216
vt 0.390252 0.992199
vt 0.374960 0.815329
vt 0.386282 0.815329
vt 0.404804 0.796806
vt 0.404804 0.785484
vt 0.184672 0.785484
vt 0.007802 0.800777
vt 0.203194 0.802422
vt 0.219085 0.805747
vt 0.195336 0.192854
vt 0.193726 0.189634
vt 0.395750 0.189634
vt 0.404804 0.195542
vt 0.409102 0.191244
vt 0.396622 0.195335
vt 0.399841 0.193726
vt 0.398785 0.780915
vt 0.191798 0.780805
vt 0.190690 0.780915
vt 0.189634 0.193726
vt 0.184672 0.191244
vt 0.402323 0.193726
vt 0.404804 0.191244
vt 0.394140 0.195335
vt 0.219085 0.812319
vt 0.189259 0.782336
vt 0.198401 0.802762
vt 0.401795 0.780915
vt 0.371811 0.810741
vt 0.404804 0.803585
vt 0.401888 0.799661
vt 0.187153 0.193726
vt 0.190484 0.777530
vt 0.196997 0.798210
vt 0.367006 0.809516
vn -0.145600 0.731900 0.665700
vn -0.128200 0.644500 0.753700
vn 0.128200 0.644500 0.753700
vn -0.886300 0.260200 -0.382900
vn -0.362800 0.131000 -0.922600
vn -0.667500 0.132800 -0.732600
vn -0.733200 0.157800 -0.661400
vn -0.644500 0.128200 -0.753700
vn -0.301500 -0.301500 -0.904500
vn 0.731800 0.145600 0.665700
vn 0.644500 0.128200 0.753700
vn 0.301500 -0.301500 0.904500
vn 0.804800 0.451600 -0.385200
vn 0.343000 0.177600 -0.922400
vn 0.458400 0.458400 -0.761400
vn 0.577300 -0.577300 -0.577300
vn 0.733200 0.157800 -0.661400
vn 0.980800 0.000000 0.195100
vn 0.017700 0.385300 -0.922600
vn 0.098800 0.918500 -0.382900
vn 0.132800 0.667500 -0.732600
vn -0.577300 -0.577300 0.577300
vn 0.577300 -0.577300 0.577300
vn -0.198800 -0.895000 -0.399300
vn -0.577300 -0.577300 -0.577300
vn 0.301500 -0.301500 -0.904500
vn -0.194900 -0.000200 0.980800
vn 0.000000 -0.707100 0.707100
vn 0.194900 -0.000200 0.980800
vn -0.128200 0.644500 -0.753700
vn 0.128200 0.644500 -0.753700
vn -0.644500 0.128200 0.753700
vn -0.301500 -0.301500 0.904500
vn 0.157800 0.733200 -0.661400
vn -0.157800 0.733200 -0.661400
vn 0.000000 0.980800 0.195100
vn 0.644500 0.128200 -0.753700
vn -0.980800 0.000000 0.195100
vn 0.145600 -0.665700 0.731900
vn 0.183600 0.183600 0.965700
vn 0.717700 0.167700 0.675900
vn 0.597100 0.597100 0.535500
vn 0.968200 0.195300 0.156100
vn 0.700000 0.700000 0.141500
vn 0.194000 0.968300 0.157300
vn 0.166100 0.718500 0.675400
vn -0.183600 0.183600 0.965700
vn -0.166100 0.718500 0.675400
vn -0.597100 0.597100 0.535500
vn -0.194000 0.968300 0.157300
vn -0.700000 0.700000 0.141500
vn -0.968200 0.195300 0.156100
vn -0.717700 0.167700 0.675800
vn 0.260200 0.886300 -0.382900
vn 0.194100 0.976000 -0.098300
vn 0.703500 0.703500 -0.100400
vn -0.451500 0.804800 -0.385200
vn -0.177600 0.343000 -0.922400
vn -0.458400 0.458300 -0.761400
vn -0.569400 0.569400 -0.592800
vn 0.420300 0.420300 -0.804200
vn -0.420300 0.420300 0.804200
vn -0.420300 0.420300 -0.804200
vn 0.549000 0.549000 0.630200
vn 0.420300 0.420300 0.804200
vn 0.145600 0.731800 0.665700
vn -0.731900 0.145600 0.665700
vn -0.731900 -0.665700 0.145600
vn -0.549000 -0.630200 0.549000
vn -0.707200 -0.000300 0.707000
vn -0.145600 -0.665700 0.731900
vn 0.549000 -0.630200 0.549000
vn 0.707200 -0.000300 0.707000
vn 0.731900 -0.665700 0.145600
vn 0.000000 0.194000 0.981000
vn 0.000000 0.707800 0.706400
vn -0.385300 0.017700 -0.922600
vn 0.385300 0.017700 -0.922600
vn 0.895000 -0.198800 -0.399300
vn -0.194100 0.976000 -0.098300
vn -0.703500 0.703500 -0.100400
vn -0.549000 0.549000 0.630200
vn -0.976000 0.194100 -0.098300
vn -0.098800 0.918500 -0.382900
vn 0.976000 0.194100 -0.098300
vn 0.131000 0.362800 -0.922600
vn -0.050500 -0.377500 -0.924600
vn -0.386100 -0.386100 -0.837800
vn -0.918500 0.098800 -0.382900
vn 0.377500 -0.050500 -0.924600
vn 0.386100 -0.386100 -0.837800
vn -0.804800 0.451500 -0.385200
vn -0.538300 0.538300 -0.648300
vn -0.343000 0.177600 -0.922400
vn -0.758000 0.150800 -0.634600
vn 0.886300 0.260200 -0.382900
vn 0.758000 0.150800 -0.634600
vn 0.667500 0.132800 -0.732700
vn 0.538400 0.538300 -0.648300
vn 0.362800 0.131000 -0.922600
vn -0.132800 0.667500 -0.732700
vn -0.150800 0.758000 -0.634600
vn -0.017700 0.385300 -0.922600
vn 0.150800 0.758000 -0.634600
vn 0.198800 -0.895000 -0.399300
vn -0.699800 -0.699800 -0.142900
vn 0.699800 -0.699800 -0.142900
vn 0.451500 0.804800 -0.385200
vn -0.260200 0.886300 -0.382900
vn -0.131000 0.362800 -0.922600
vn 0.569400 0.569400 -0.592800
vn -0.377500 -0.050500 -0.924600
vn 0.050500 -0.377500 -0.924600
vn 0.177600 0.343000 -0.922400
vn 0.918500 0.098800 -0.382900
vn 0.537600 -0.537600 -0.649600
vn -0.537600 -0.537600 -0.649600
vn -0.895000 -0.198800 -0.399300
usemtl Material
s 1
f 19/1/1 32/2/2 22/3/3
f 100/4/4 104/5/5 103/6/6
f 16/7/7 29/8/8 7/9/9
f 10/10/10 23/11/11 5/12/12
f 94/13/13 95/14/14 97/15/15
f 2/16/16 13/17/17 58/18/18
f 81/19/19 77/20/20 82/21/21
f 4/22/22 1/23/23 5/24/12
f 73/25/24 1/26/23 4/27/22
f 3/28/25 7/29/9 6/30/26
f 54/31/27 9/32/28 57/33/29
f 32/2/2 28/34/30 26/35/31
f 7/9/9 29/8/8 31/36/32
f 6/30/26 7/29/9 8/37/33
f 14/38/34 17/39/35 61/40/36
f 2/41/16 6/42/26 25/43/37
f 23/11/11 25/43/37 6/42/26
f 4/44/22 8/45/33 31/36/32
f 3/46/25 55/47/38 16/48/7
f 14/49/34 26/35/31 28/34/30
f 2/50/16 35/51/39 9/32/28
f 37/52/40 40/53/41 41/54/42
f 38/55/43 42/56/44 41/57/42
f 39/58/45 43/59/46 41/60/42
f 47/61/47 50/62/48 51/63/49
f 48/64/50 52/65/51 51/66/49
f 49/67/52 53/68/53 51/69/49
f 79/70/54 78/71/55 93/72/56
f 114/73/57 118/74/58 117/75/59
f 17/39/35 18/76/60 52/65/51
f 52/77/51 18/78/60 16/48/7
f 22/3/3 26/35/31 27/79/61
f 27/80/61 25/43/37 23/11/11
f 28/34/30 32/2/2 33/81/62
f 30/82/63 33/83/62 31/36/32
f 16/7/7 18/84/60 30/85/63
f 30/86/63 18/87/60 17/88/35
f 13/89/17 25/43/37 27/90/61
f 27/91/61 26/35/31 14/49/34
f 10/10/10 12/92/64 24/93/65
f 24/94/65 12/95/64 11/96/66
f 20/97/67 31/36/32 33/98/62
f 33/81/62 32/2/2 19/1/1
f 14/38/34 39/58/45 42/99/44
f 42/56/44 38/55/43 13/17/17
f 45/100/68 46/101/69 56/102/70
f 46/101/69 44/103/71 54/31/27
f 35/51/39 36/104/72 59/105/73
f 36/104/72 34/106/74 58/18/18
f 60/107/75 37/52/40 43/59/46
f 62/108/76 43/59/46 39/58/45
f 49/67/52 55/47/38 56/102/70
f 53/68/53 56/102/70 54/31/27
f 57/33/29 59/105/73 40/53/41
f 59/105/73 58/18/18 38/55/43
f 60/107/75 62/108/76 50/62/48
f 62/108/76 61/40/36 48/64/50
f 102/109/77 81/19/19 88/110/78
f 1/111/23 63/112/79 10/113/10
f 19/114/1 107/115/80 113/116/81
f 21/117/82 113/118/81 99/119/83
f 78/71/55 108/120/84 107/115/80
f 94/121/13 93/122/56 86/123/85
f 79/124/54 83/125/86 82/126/21
f 75/127/87 73/25/24 76/128/88
f 4/129/22 20/130/67 98/131/89
f 102/109/77 98/131/89 103/132/6
f 69/133/90 63/112/79 67/134/91
f 11/96/66 19/1/1 22/3/3
f 112/135/92 115/136/93 117/75/59
f 116/137/94 100/4/4 112/135/92
f 100/4/4 103/6/6 101/138/95
f 100/4/4 116/137/94 104/5/5
f 116/137/94 112/135/92 117/75/59
f 3/139/25 16/7/7 7/9/9
f 1/140/23 10/10/10 5/12/12
f 85/141/96 84/142/97 90/143/98
f 95/14/14 94/13/13 85/141/96
f 94/13/13 97/15/15 91/144/99
f 85/141/96 89/145/100 95/14/14
f 89/145/100 85/141/96 90/143/98
f 58/18/18 34/106/74 2/16/16
f 13/17/17 38/55/43 58/18/18
f 108/120/84 111/146/101 105/147/102
f 77/20/20 81/19/19 109/148/103
f 77/20/20 80/149/104 82/21/21
f 109/148/103 108/120/84 77/20/20
f 108/120/84 109/148/103 111/146/101
f 8/37/33 4/22/22 5/24/12
f 1/26/23 73/25/24 65/150/105
f 73/25/24 4/27/22 70/151/106
f 65/150/105 64/152/107 1/26/23
f 2/153/16 3/28/25 6/30/26
f 54/31/27 60/107/75 47/61/47
f 9/32/28 35/51/39 57/33/29
f 57/33/29 37/52/40 60/107/75
f 54/31/27 44/103/71 9/32/28
f 57/33/29 60/107/75 54/31/27
f 22/3/3 32/2/2 26/35/31
f 8/45/33 7/9/9 31/36/32
f 5/24/12 6/30/26 8/37/33
f 61/40/36 39/58/45 14/38/34
f 17/39/35 48/64/50 61/40/36
f 13/89/17 2/41/16 25/43/37
f 5/12/12 23/11/11 6/42/26
f 20/97/67 4/44/22 31/36/32
f 55/47/38 3/46/25 45/100/68
f 55/47/38 49/67/52 16/48/7
f 17/88/35 14/49/34 28/34/30
f 9/32/28 3/154/25 2/50/16
f 44/103/71 46/101/69 45/155/68
f 45/155/68 3/154/25 44/103/71
f 34/156/74 36/104/72 35/51/39
f 35/51/39 2/50/16 34/156/74
f 3/154/25 9/32/28 44/103/71
f 43/59/46 37/52/40 41/54/42
f 40/53/41 38/55/43 41/57/42
f 42/99/44 39/58/45 41/60/42
f 53/68/53 47/61/47 51/63/49
f 50/62/48 48/64/50 51/66/49
f 52/77/51 49/67/52 51/69/49
f 93/72/56 92/157/108 79/70/54
f 11/158/66 12/159/64 93/72/56
f 93/72/56 78/71/55 11/158/66
f 106/160/109 105/161/102 111/162/101
f 118/74/58 114/73/57 106/160/109
f 114/73/57 117/75/59 115/136/93
f 106/160/109 110/163/110 118/74/58
f 110/163/110 106/160/109 111/162/101
f 48/64/50 17/39/35 52/65/51
f 49/67/52 52/77/51 16/48/7
f 24/94/65 22/3/3 27/79/61
f 24/164/65 27/80/61 23/11/11
f 30/165/63 28/34/30 33/81/62
f 29/8/8 30/82/63 31/36/32
f 29/8/8 16/7/7 30/85/63
f 28/34/30 30/86/63 17/88/35
f 15/166/111 13/89/17 27/90/61
f 15/167/111 27/91/61 14/49/34
f 23/11/11 10/10/10 24/93/65
f 22/3/3 24/94/65 11/96/66
f 21/168/82 20/97/67 33/98/62
f 21/169/82 33/81/62 19/1/1
f 15/170/111 14/38/34 42/99/44
f 15/171/111 42/56/44 13/17/17
f 55/47/38 45/100/68 56/102/70
f 56/102/70 46/101/69 54/31/27
f 57/33/29 35/51/39 59/105/73
f 59/105/73 36/104/72 58/18/18
f 62/108/76 60/107/75 43/59/46
f 61/40/36 62/108/76 39/58/45
f 53/68/53 49/67/52 56/102/70
f 47/61/47 53/68/53 54/31/27
f 37/52/40 57/33/29 40/53/41
f 40/53/41 59/105/73 38/55/43
f 47/61/47 60/107/75 50/62/48
f 50/62/48 62/108/76 48/64/50
f 102/109/77 109/148/103 81/19/19
f 116/137/94 118/74/58 110/163/110
f 110/163/110 104/5/5 116/137/94
f 69/133/90 74/172/112 102/109/77
f 69/133/90 68/173/113 75/127/87
f 102/109/77 88/110/78 69/133/90
f 96/174/114 95/14/14 89/145/100
f 89/145/100 83/125/86 96/174/114
f 102/109/77 110/163/110 109/148/103
f 110/163/110 102/109/77 104/5/5
f 74/172/112 69/133/90 75/127/87
f 81/19/19 83/125/86 89/145/100
f 89/145/100 88/110/78 81/19/19
f 63/112/79 1/111/23 64/175/107
f 87/176/115 86/123/85 10/113/10
f 10/113/10 63/112/79 87/176/115
f 113/116/81 21/177/82 19/114/1
f 106/178/109 114/179/57 113/116/81
f 113/116/81 107/115/80 106/178/109
f 99/119/83 20/130/67 21/117/82
f 112/180/92 100/181/4 99/119/83
f 99/119/83 113/118/81 112/180/92
f 19/114/1 11/158/66 78/71/55
f 78/71/55 107/115/80 19/114/1
f 78/71/55 77/20/20 108/120/84
f 86/123/85 85/182/96 94/121/13
f 12/183/64 10/113/10 86/123/85
f 86/123/85 93/122/56 12/183/64
f 92/184/108 91/144/99 97/15/15
f 96/174/114 79/124/54 92/184/108
f 79/124/54 82/126/21 80/185/104
f 79/124/54 96/174/114 83/125/86
f 96/174/114 92/184/108 97/15/15
f 65/150/105 67/186/91 66/187/116
f 73/25/24 75/127/87 68/173/113
f 73/25/24 72/188/117 76/128/88
f 68/173/113 65/150/105 73/25/24
f 65/150/105 68/173/113 67/186/91
f 71/189/118 70/190/106 4/129/22
f 4/129/22 98/131/89 71/189/118
f 98/131/89 20/130/67 99/119/83
f 71/189/118 76/191/88 72/192/117
f 98/131/89 102/109/77 74/172/112
f 98/131/89 101/193/95 103/132/6
f 74/172/112 71/189/118 98/131/89
f 71/189/118 74/172/112 76/191/88
f 87/176/115 90/194/98 84/195/97
f 87/176/115 69/133/90 88/110/78
f 63/112/79 66/196/116 67/134/91
f 69/133/90 87/176/115 63/112/79
f 87/176/115 88/110/78 90/194/98
usemtl Material_Untitled
f 63/112/79 64/175/107 65/197/105
f 67/186/91 68/173/113 69/133/90
f 71/189/118 72/198/117 73/199/24
f 74/172/112 75/127/87 76/200/88
f 78/71/55 79/70/54 80/201/104
f 81/19/19 82/21/21 83/125/86
f 84/142/97 85/141/96 86/202/85
f 88/110/78 89/145/100 90/143/98
f 91/144/99 92/184/108 93/203/56
f 95/14/14 96/174/114 97/15/15
f 99/119/83 100/181/4 101/204/95
f 102/109/77 103/132/6 104/5/5
f 105/161/102 106/160/109 107/205/80
f 109/148/103 110/163/110 111/162/101
f 113/118/81 114/206/57 115/207/93
f 116/137/94 117/75/59 118/74/58
f 66/208/116 63/112/79 65/197/105
f 70/190/106 71/189/118 73/199/24
f 77/20/20 78/71/55 80/201/104
f 87/209/115 84/142/97 86/202/85
f 94/210/13 91/144/99 93/203/56
f 98/131/89 99/119/83 101/204/95
f 108/211/84 105/161/102 107/205/80
f 112/180/92 113/118/81 115/207/93
