# Blender v2.76 (sub 0) OBJ File: ''
# www.blender.org
mtllib Brown_Cliff_Top_01_2.mtl
o Mesh1_Brown_Cliff_Top_Model
v 0.999666 0.000000 -0.999660
v 0.739754 0.000000 -0.999660
v 0.693103 0.096634 -0.999660
v 0.761316 0.096634 -0.999660
v 0.999666 0.096634 -0.999660
v 0.860599 0.000000 -0.424829
v 0.739754 0.000000 -0.641222
v 0.788461 0.000000 -0.795460
v 0.999666 0.000000 0.000000
v 0.739754 0.000000 0.000000
v 0.779391 0.000000 -0.123913
v 0.739754 0.000000 -0.233598
v 0.813949 0.096634 -0.424829
v 0.693103 0.096634 -0.641222
v 0.810612 0.096634 -0.792991
v 0.741810 0.096634 -0.795460
v 0.693103 0.096634 -0.233598
v 0.732740 0.096634 -0.123913
v 0.693103 0.096634 0.000000
v 0.762767 0.096634 0.000000
v 0.802820 0.096634 -0.125215
v 0.766543 0.096634 -0.225605
v 0.891115 0.096634 -0.422733
v 0.765002 0.096634 -0.648560
v 0.999666 0.096634 0.000000
vt 0.137272 0.677159
vt 0.121305 0.659704
vt 0.128104 0.628434
vt 0.120647 0.603306
vt 0.117264 0.592731
vt 0.137272 0.592731
vt 0.117583 0.611785
vt 0.117453 0.647506
vt 0.117142 0.677159
vt 0.366765 0.595458
vt 0.369215 0.584478
vt 0.396300 0.595458
vt 0.323049 0.638760
vt 0.338851 0.573441
vt 0.338851 0.687034
vt 0.372501 0.623678
vt 0.372501 0.595515
vt 0.384417 0.598099
vt 0.347676 0.638760
vt 0.353063 0.661399
vt 0.338908 0.638998
vt 0.372445 0.630350
vt 0.361464 0.603431
vt 0.372445 0.600816
vt 0.475058 0.573441
vt 0.475058 0.584421
vt 0.361464 0.584421
vt 0.384417 0.653075
vt 0.396503 0.651460
vt 0.396503 0.666243
vt 0.384361 0.656714
vt 0.384361 0.669967
vt 0.372302 0.668165
vt 0.372501 0.629151
vt 0.384361 0.626319
vt 0.384361 0.652024
vt 0.384417 0.650174
vt 0.396549 0.627549
vt 0.384474 0.597111
vt 0.396562 0.595515
vt 0.396562 0.613894
vt 0.396300 0.584478
vt 0.361464 0.584478
vt 0.309317 0.614171
vt 0.314852 0.596644
vt 0.313821 0.672954
vt 0.309317 0.660490
vt 0.309317 0.687034
vt 0.309317 0.573441
vt 0.353238 0.613337
vt 0.348055 0.596925
vt 0.355873 0.596644
vt 0.353657 0.573441
vt 0.361408 0.573441
vt 0.361408 0.660490
vt 0.356904 0.672954
vt 0.361408 0.687034
vt 0.353492 0.687034
vt 0.361408 0.614171
vt 0.348941 0.672806
vt 0.361464 0.595515
vt 0.361464 0.630350
vt 0.361464 0.573441
vt 0.384417 0.667859
vt 0.372302 0.654912
vt 0.372501 0.654856
vt 0.396549 0.651404
vt 0.384474 0.615490
vn -0.000000 1.000000 0.000000
vn 0.000000 0.000000 -1.000000
vn 0.000000 -1.000000 -0.000000
vn -0.804500 -0.388400 0.449300
vn 0.000000 -0.000000 1.000000
vn 1.000000 0.000000 0.000000
vn -0.865400 -0.417800 -0.276800
vn -0.856300 -0.413400 0.309500
vn -0.782700 -0.377800 -0.494600
vn -0.880500 -0.425100 0.210000
vn -0.866200 -0.418200 -0.273500
g Mesh1_Brown_Cliff_Top_Model_Mesh1_Brown_Cliff_Top_Model_Leafs
usemtl Leafs
s 1
f 5/1/1 15/2/1 23/3/1
f 21/4/1 20/5/1 25/6/1
f 23/3/1 22/7/1 21/4/1
f 15/2/1 24/8/1 23/3/1
f 5/1/1 4/9/1 15/2/1
f 23/3/1 21/4/1 25/6/1
f 25/6/1 5/1/1 23/3/1
g Mesh1_Brown_Cliff_Top_Model_Mesh1_Brown_Cliff_Top_Model_Wood
usemtl Wood
f 2/10/2 4/11/2 1/12/2
f 6/13/3 1/14/3 9/15/3
f 13/16/4 14/17/4 7/18/4
f 13/19/1 22/20/1 23/21/1
f 9/22/5 20/23/5 10/24/5
f 25/25/6 9/26/6 1/27/6
f 18/28/7 11/29/7 10/30/7
f 18/31/8 17/32/8 12/33/8
f 13/34/9 6/35/9 12/36/9
f 16/37/10 3/35/10 2/38/10
f 16/39/11 8/40/11 7/41/11
f 5/42/2 1/12/2 4/11/2
f 2/10/2 3/43/2 4/11/2
f 6/13/3 7/44/3 8/45/3
f 11/46/3 12/47/3 6/13/3
f 9/15/3 10/48/3 11/46/3
f 2/49/3 1/14/3 8/45/3
f 9/15/3 11/46/3 6/13/3
f 8/45/3 1/14/3 6/13/3
f 6/35/4 13/16/4 7/18/4
f 24/50/1 15/51/1 16/52/1
f 4/53/1 3/54/1 16/52/1
f 13/19/1 17/55/1 22/20/1
f 15/51/1 4/53/1 16/52/1
f 18/56/1 19/57/1 20/58/1
f 24/50/1 16/52/1 14/59/1
f 18/56/1 20/58/1 21/60/1
f 24/50/1 14/59/1 13/19/1
f 18/56/1 21/60/1 22/20/1
f 23/21/1 24/50/1 13/19/1
f 17/55/1 18/56/1 22/20/1
f 19/61/5 10/24/5 20/23/5
f 9/22/5 25/62/5 20/23/5
f 5/63/6 25/25/6 1/27/6
f 19/64/7 18/28/7 10/30/7
f 11/65/8 18/31/8 12/33/8
f 17/66/9 13/34/9 12/36/9
f 8/67/10 16/37/10 2/38/10
f 14/68/11 16/39/11 7/41/11
