# Blender v2.76 (sub 0) OBJ File: 'Brown_Cliff_01.blend'
# www.blender.org
mtllib Brown_Cliff_01.mtl
o Cube.000_Cube.002
v 0.500007 -0.499988 -0.499998
v 0.240007 -0.499988 -0.499998
v 0.240007 0.233346 -0.499998
v 0.500007 0.233346 -0.499998
v 0.360893 -0.499988 0.075029
v 0.240007 -0.499988 -0.141438
v 0.288730 -0.499988 -0.295728
v 0.500007 -0.499988 0.500003
v 0.240007 -0.499988 0.500003
v 0.279656 -0.499988 0.376048
v 0.240007 -0.499988 0.266325
v 0.360893 0.233346 0.075029
v 0.240007 0.233346 -0.141437
v 0.240007 0.233346 0.266326
v 0.279656 0.233346 0.376048
v 0.240007 0.233346 0.500003
v 0.500007 0.233346 0.500003
v 0.288730 0.233346 -0.295728
vt 0.385016 0.600482
vt 0.385016 0.650482
vt 0.367289 0.650482
vt 0.376774 0.629457
vt 0.367289 0.668664
vt 0.367289 0.600482
vt 0.337366 0.650482
vt 0.337366 0.600482
vt 0.354271 0.600482
vt 0.380531 0.629457
vt 0.390016 0.668664
vt 0.375611 0.654736
vt 0.353155 0.650482
vt 0.353155 0.600482
vt 0.368584 0.600482
vt 0.361506 0.650482
vt 0.361506 0.600482
vt 0.369460 0.600482
vt 0.371718 0.650482
vt 0.371718 0.600482
vt 0.380592 0.600482
vt 0.390016 0.600482
vt 0.390016 0.650482
vt 0.372289 0.650482
vt 0.378653 0.650482
vt 0.378653 0.600482
vt 0.446835 0.600482
vt 0.310855 0.650482
vt 0.310855 0.600482
vt 0.325173 0.600482
vt 0.327833 0.650482
vt 0.327833 0.600482
vt 0.338865 0.600482
vt 0.385016 0.644216
vt 0.381694 0.654736
vt 0.382313 0.608933
vt 0.385016 0.616414
vt 0.385016 0.668664
vt 0.354271 0.650482
vt 0.372289 0.616414
vt 0.374992 0.608933
vt 0.372289 0.644216
vt 0.372289 0.668664
vt 0.372289 0.600482
vt 0.368584 0.650482
vt 0.369460 0.650482
vt 0.380592 0.650482
vt 0.446835 0.650482
vt 0.325173 0.650482
vt 0.338865 0.650482
vn 0.000000 0.000000 -1.000000
vn 0.000000 -1.000000 -0.000000
vn -0.873100 -0.000000 0.487600
vn 0.000000 1.000000 0.000000
vn -0.845400 0.000000 -0.534200
vn -0.940500 -0.000000 0.339900
vn -0.952500 0.000000 -0.304700
vn 0.000000 -0.000000 1.000000
vn 1.000000 0.000000 0.000000
vn -0.972700 -0.000000 0.232000
vn -0.953600 0.000000 -0.301100
usemtl Material.001
s 1
f 2/1/1 3/2/1 4/3/1
f 5/4/2 1/5/2 8/6/2
f 13/7/3 6/8/3 5/9/3
f 12/10/4 4/11/4 18/12/4
f 12/13/5 5/14/5 11/15/5
f 14/16/6 11/17/6 10/18/6
f 15/19/7 10/20/7 9/21/7
f 8/22/8 17/23/8 16/24/8
f 17/25/9 8/26/9 1/27/9
f 3/28/10 2/29/10 7/30/10
f 18/31/11 7/32/11 6/33/11
f 1/6/1 2/1/1 4/3/1
f 5/4/2 6/34/2 7/35/2
f 10/36/2 11/37/2 5/4/2
f 8/6/2 9/1/2 10/36/2
f 2/38/2 1/5/2 7/35/2
f 8/6/2 10/36/2 5/4/2
f 7/35/2 1/5/2 5/4/2
f 12/39/3 13/7/3 5/9/3
f 12/10/4 14/40/4 15/41/4
f 18/12/4 13/42/4 12/10/4
f 4/11/4 3/43/4 18/12/4
f 15/41/4 16/44/4 17/22/4
f 17/22/4 4/11/4 12/10/4
f 12/10/4 15/41/4 17/22/4
f 14/45/5 12/13/5 11/15/5
f 15/46/6 14/16/6 10/18/6
f 16/47/7 15/19/7 9/21/7
f 9/44/8 8/22/8 16/24/8
f 4/48/9 17/25/9 1/27/9
f 18/49/10 3/28/10 7/30/10
f 13/50/11 18/31/11 6/33/11
