# Alias OBJ Model File
# Exported from SketchUp, (c) 2000-2012 Trimble Navigation Limited
# File units = meters

mtllib merged.mtl

g Mesh1 Brown_Cliff_Bottom_Corner Model

usemtl merged
v 1.14 0 -0
vt 0.2625 0.2625
vn -1.46071e-018 -1 2.98612e-034
v 0 1.66521e-018 -0
vt 0.2625 0.2625
v 1.14 0 -1.14
vt 0.2625 0.3795455
f 1/1/1 2/2/1 3/3/1

vt 0.2625 0.2625
vn -4.89901e-013 3.1244e-013 1
vt 0.3795455 0.2625
v 1.14 2.2 -0
vt 0.3795455 0.4875
v 0.36 2.2 -1.19837e-012
vt 0.290909 0.4875
f 2/4/2 1/5/2 4/6/2 5/7/2

vt 0.2625 0.2625
vn 1 5.79708e-014 -9.08973e-014
vt 0.3795455 0.2625
v 1.14 2.2 -0.78
vt 0.33863625 0.4875
vt 0.2625 0.4875
f 1/8/3 3/9/3 6/10/3 4/11/3

vt 0.2625 0.4875
vn -0.70242 0.114941 -0.70242
vt 0.2625 0.2625
vt 0.2625 0.2625
vt 0.2625 0.4875
f 6/12/4 3/13/4 2/14/4 5/15/4

vt 0.290909 0.2625
vn 0 1 -0
vt 0.3795455 0.2625
vt 0.3795455 0.33863625
f 5/16/5 4/17/5 6/18/5

