# Alias OBJ Model File
# Exported from SketchUp, (c) 2000-2012 Trimble Navigation Limited
# File units = meters

mtllib merged.mtl

g Mesh1 Fallen_Trunk Model

usemtl merged
v 2.19 3.31356e-017 -0
vt 0.4833075 0.2625
vn -0.348008 -5.73531e-018 0.937491
v 2.19 0.7952 -0
vt 0.4833075 0.34036375
v 1.86 0.71 -0.1225
vt 0.44330725 0.33068175
v 1.86 3.31356e-017 -0.1225
vt 0.44330725 0.2625
f 1/1/1 2/2/1 3/3/1 4/4/1

usemtl merged
vt 0.2625 0.5125
vn 1 -7.79321e-017 -0
v 2.19 0.0991468 -0.119507
vt 0.263580375 0.5125
vt 0.2625 0.59036375
f 1/5/2 5/6/2 2/7/2

v 2.19 3.31356e-017 -0.945
vt 0.35738625 0.5125
f 5/6/2 1/5/2 6/8/2

usemtl merged
v 1.86 3.31356e-017 -0.8225
vt 0.2625 0.343466
vn -6.07184e-031 -1 2.5355e-049
vt 0.2625 0.35738625
vt 0.2625 0.2625
vt 0.2625 0.26392045
f 7/9/3 6/10/3 1/11/3 4/12/3

vt 0.2625 0.2625
vn -0.348008 -2.86765e-018 -0.937491
vt 0.2625 0.2625
v 1.86 0.71 -0.8225
vt 0.2625 0.33068175
v 2.19 0.7952 -0.945
vt 0.2625 0.34036375
f 6/13/4 7/14/4 8/15/4 9/16/4

vt 0.2625 0.2625
vn -0.021719 1.18373e-018 -0.999764
v 1.16229 0.154074 -0.807343
vt 0.2625 0.26750835
vt 0.2625 0.33068175
f 7/17/5 10/18/5 8/19/5

v 0.808992 0.154074 -0.799668
vt 0.2625 0.26750835
f 10/18/5 7/17/5 11/20/5

v 0.41 3.31356e-017 -0.791
vt 0.2625 0.2625
f 12/21/5 11/20/5 7/17/5

v 0.41 0.639 -0.791
vt 0.2625 0.32261375
f 11/20/5 12/21/5 13/22/5

v 0 0 -0.870625
vt 0.268861425 0.2625
vn 0.190645 0 -0.981659
v 0 0.7029 -0.870625
vt 0.268861425 0.329875
vt 0.2625 0.32261375
vt 0.2625 0.2625
f 14/23/6 15/24/6 13/25/6 12/26/6

usemtl merged
vt 0.2625 0.5125
vn -1 -7.34713e-018 -0
v 1.01068e-014 0.0876387 -0.769929
vt 0.2625 0.5125
vt 0.2625 0.579875
f 14/27/7 16/28/7 15/29/7

v 1.01068e-014 0.0876387 -0.175071
vt 0.2625 0.5125
f 14/27/7 17/30/7 16/28/7

v 0 0 -0.074375
vt 0.2625 0.5125
f 18/31/7 17/30/7 14/27/7

v 1.01068e-014 0.615261 -0.175071
vt 0.2625 0.569916
f 17/30/7 18/31/7 19/32/7

v 0 0.7029 -0.074375
vt 0.2625 0.579875
f 20/33/7 19/32/7 18/31/7

f 19/32/7 20/33/7 15/29/7

usemtl merged
vt 0.2625 0.2625
vn 0.153995 0.988072 4.4369e-018
v 0.41 0.639 -0.154
vt 0.2675 0.2625
vt 0.33988625 0.2625
vt 0.34893475 0.2625
f 20/34/8 21/35/8 13/36/8 15/37/8

vt 0.2625 0.2625
vn 0.190645 0 0.981659
v 0.41 3.31356e-017 -0.154
vt 0.29907275 0.2625
vt 0.29907275 0.32261375
vt 0.2625 0.329875
f 18/38/9 22/39/9 21/40/9 20/41/9

vt 0.2625 0.34893475
vn 8.08185e-017 -1 2.50688e-033
vt 0.2625 0.33988625
vt 0.2625 0.2675
vt 0.2625 0.2625
f 14/42/10 12/43/10 22/44/10 18/45/10

vn 2.74909e-031 -1 -0
f 12/43/11 7/9/11 4/12/11 22/44/11

v 1.86 0.0885239 -0.211024
vt 0.27398 0.2625
vn 1 0 -0
vt 0.26392045 0.2625
vt 0.343466 0.2625
f 23/46/12 4/47/12 7/48/12

vt 0.26392045 0.33068175
f 4/47/12 23/46/12 3/49/12

v 1.86 0.621476 -0.211024
vt 0.27398 0.32062225
f 24/50/12 3/49/12 23/46/12

vt 0.343466 0.33068175
f 3/49/12 24/50/12 8/51/12

v 1.86 0.621476 -0.733976
vt 0.3334065 0.32062225
f 8/51/12 24/50/12 25/52/12

vt 0.3334065 0.471732
vn 0.220432 -0.975402 -4.35352e-018
v 2.19 0.696053 -0.825493
vt 0.343806 0.4875
v 2.19 0.696053 -0.119507
vt 0.263580375 0.4875
vt 0.27398 0.471732
f 25/53/13 26/54/13 27/55/13 24/56/13

v 1.86 0.0885239 -0.733976
vt 0.47596575 0.2625
vn 0.267237 7.84696e-018 0.963631
v 2.19 0.0991468 -0.825493
vt 0.4875 0.2625
vt 0.4875 0.329097
vt 0.47596575 0.32062225
f 28/57/14 29/58/14 26/59/14 25/60/14

vt 0.2625 0.46157775
vn -0.0321738 0.999482 2.90295e-019
vt 0.2625 0.4875
vt 0.2625 0.4875
vt 0.2625 0.46157775
f 23/61/15 5/62/15 29/63/15 28/64/15

vt 0.2625 0.2625
vn 0.267237 5.23131e-018 -0.963631
vt 0.2625 0.32062225
vt 0.2625 0.329097
vt 0.2625 0.2625
f 23/65/16 24/66/16 27/67/16 5/68/16

vt 0.2625 0.2625
vn 0.0162274 -2.10106e-018 -0.999868
v 0.41 0.0796715 -0.234557
vt 0.2625 0.2625
v 0.41 0.559328 -0.234557
vt 0.2625 0.31356
vt 0.2625 0.32062225
f 23/69/17 30/70/17 31/71/17 24/72/17

vt 0.2625 0.461421
vn -0.00610498 0.999981 -6.75648e-019
v 0.41 0.0796715 -0.710443
vt 0.2625 0.29664525
vt 0.2625 0.29664525
vt 0.2625 0.461421
f 28/73/18 32/74/18 30/75/18 23/76/18

v 0.41 0.559328 -0.710443
vt 0.29789475 0.31356
vn 0.0162274 -1.40071e-018 0.999868
vt 0.29789475 0.2625
vt 0.46268925 0.2625
vt 0.46268925 0.32062225
f 33/77/19 32/78/19 28/79/19 25/80/19

vt 0.28451625 0.2625
vn -0.143584 3.28739e-018 0.989638
vt 0.28451625 0.31356
v 1.01068e-014 0.615261 -0.769929
vt 0.2625 0.319916
vt 0.2625 0.2625
f 32/81/20 33/82/20 34/83/20 16/84/20

vt 0.2625 0.31356
vn -1 -8.08185e-017 -0
vt 0.2625 0.32261375
vt 0.2625 0.2625
f 33/85/21 13/86/21 32/87/21

vt 0.2625 0.31356
f 31/88/21 13/86/21 33/85/21

vt 0.2625 0.32261375
f 31/88/21 21/89/21 13/86/21

vt 0.2625 0.2625
f 21/89/21 31/88/21 22/90/21

vt 0.2625 0.2625
f 30/91/21 22/90/21 31/88/21

vt 0.2625 0.2625
f 22/90/21 30/91/21 12/92/21

f 12/92/21 30/91/21 32/87/21

vt 0.269894425 0.2625
vn 0.0194284 0.999811 3.883e-019
vt 0.27665425 0.2625
vt 0.33073225 0.2625
vt 0.337492 0.2625
f 17/93/22 30/94/22 32/95/22 16/96/22

vt 0.2625 0.2625
vn -0.143584 0 -0.989638
vt 0.2625 0.2625
vt 0.2625 0.319916
vt 0.2625 0.31356
f 30/97/23 17/98/23 19/99/23 31/100/23

vt 0.2625 0.2625
vn -0.13517 -0.990822 -2.62277e-018
vt 0.2625 0.2625
vt 0.2625 0.2625
vt 0.2625 0.2625
f 34/101/24 33/102/24 31/103/24 19/104/24

vt 0.27398 0.464194
vn 0.0428211 -0.999083 5.48641e-018
vt 0.27665425 0.29927
vt 0.33073225 0.29927
vt 0.3334065 0.464194
f 24/105/25 31/106/25 33/107/25 25/108/25

usemtl merged
vt 0.2625 0.569916
f 19/32/7 15/29/7 34/109/7

f 34/109/7 15/29/7 16/28/7

usemtl merged
f 12/92/21 32/87/21 13/86/21

vt 0.29619975 0.2625
vn -0.021719 -2.36746e-018 0.999764
vt 0.4610115 0.2625
vt 0.4610115 0.33068175
vt 0.29619975 0.32261375
f 22/110/26 4/111/26 3/112/26 21/113/26

vt 0.2625 0.3000865
vn -0.0489069 0.998803 -0
vt 0.2625 0.4650565
vt 0.2625 0.4650565
vt 0.2625 0.3000865
f 21/114/27 3/115/27 8/116/27 13/117/27

vt 0.2625 0.474822
vn -0.249985 0.96825 -9.56965e-019
vt 0.2625 0.4875
vt 0.2625 0.4875
vt 0.2625 0.474822
f 3/118/28 2/119/28 9/120/28 8/121/28

usemtl merged
vt 0.263580375 0.579097
vt 0.35738625 0.59036375
f 2/7/2 27/122/2 9/123/2

f 27/122/2 2/7/2 5/6/2

vt 0.343806 0.579097
f 9/123/2 27/122/2 26/124/2

f 9/123/2 26/124/2 6/8/2

vt 0.343806 0.5125
f 29/125/2 6/8/2 26/124/2

f 5/6/2 6/8/2 29/125/2

usemtl merged
v 1.16229 0.474074 -0.807343
vt 0.2625 0.303872
f 8/19/5 35/126/5 13/22/5

f 8/19/5 10/18/5 35/126/5

vt 0.2625 0.26750835
vn 0.838049 -3.92733e-017 -0.545594
v 0.922896 0.205274 -1.17505
vt 0.30468475 0.273326525
v 0.922896 0.422874 -1.17505
vt 0.30468475 0.29805375
vt 0.2625 0.303872
f 10/127/29 36/128/29 37/129/29 35/130/29

v 0.718944 0.205274 -1.17062
vt 0.2625 0.383173
vn -0.00295495 -0.990701 -0.136021
vt 0.2625 0.383173
vt 0.2625 0.340409
vt 0.2625 0.340409
f 38/131/30 36/132/30 10/133/30 11/134/30

usemtl merged
vt 0.2625 0.523326525
vn -0.021719 6.87745e-031 -0.999764
v 0.718944 0.422874 -1.17062
vt 0.2625 0.54805375
vt 0.2625 0.54805375
vt 0.2625 0.523326525
f 38/135/31 39/136/31 37/137/31 36/138/31

usemtl merged
v 0.808992 0.474074 -0.799668
vt 0.2625 0.303872
vn -0.971779 -6.04341e-018 0.235894
vt 0.2625 0.29805375
vt 0.2625 0.273326525
vt 0.2625 0.26750835
f 40/139/32 39/140/32 38/141/32 11/142/32

vt 0.2625 0.2625
vn -0.00295495 0.990701 -0.136021
vt 0.2625 0.2625
vt 0.2625 0.2625
vt 0.2625 0.2625
f 39/143/33 40/144/33 35/145/33 37/146/33

vt 0.2625 0.303872
f 40/147/5 13/22/5 35/126/5

f 11/20/5 13/22/5 40/147/5

vt 0.3334065 0.2625
f 28/148/12 7/48/12 25/52/12

f 23/46/12 7/48/12 28/148/12

f 8/51/12 25/52/12 7/48/12

