# Alias OBJ Model File
# Exported from SketchUp, (c) 2000-2012 Trimble Navigation Limited
# File units = meters

mtllib merged.mtl

g Mesh1 Grey_Cliff_Top_Corner Model

usemtl merged
v 0.92 0.29 -0
vt 0.1045455 0.5125
vn 0 1 -0
v 0.92 0.29 -0.710938
vt 0.1045455 0.58078825
v 0.204709 0.29 8.66294e-015
vt 0.02326245 0.5125
f 1/1/1 2/2/1 3/3/1

usemtl merged
v 0.92 0 -0
vt 0.7625 0.5125
vn 1 1.45213e-013 -5.84357e-014
v 0.92 0 -0.78
vt 0.83863625 0.5125
v 0.92 0.29 -0.92
vt 0.8545455 0.5329545
vt 0.83078825 0.5329545
vt 0.7625 0.5329545
f 4/4/2 5/5/2 6/6/2 2/7/2 1/8/2

vt 0.7625 0.5125
vn 0 -1 -0
v 0.14 0 -0
vt 0.7625 0.5125
vt 0.7625 0.58863625
f 4/9/3 7/10/3 5/11/3

vt 0.7659091 0.5125
vn -8.92058e-013 2.21677e-012 1
vt 0.8545455 0.5125
vt 0.77326245 0.5329545
v 0 0.29 -1.41061e-012
vt 0.7625 0.5329545
f 7/12/4 4/13/4 1/6/4 3/14/4 8/15/4

vt 0.7625 0.5125
vt 0.8545455 0.6045455
f 8/16/1 3/3/1 2/2/1 6/17/1

vt 0.7625 0.5311875
vn -0.669191 -0.323058 -0.669191
vt 0.7625 0.5125
vt 0.7625 0.5125
vt 0.7625 0.5311875
f 6/18/5 5/19/5 7/20/5 8/21/5

