# Alias OBJ Model File
# Exported from SketchUp, (c) 2000-2012 Trimble Navigation Limited
# File units = meters

mtllib merged.mtl

g Mesh1 Mushroom_Tall Model

usemtl merged
v 0.434918 0.5359 -0.12555
vt 0.29993475 0.28794575
vn 0.377964 0.654654 0.654654
v 0.217459 0.787 -0.2511
vt 0.2856675 0.32569275
v 0.217459 0.5359 -0
vt 0.271400575 0.28794575
f 1/1/1 2/2/1 3/3/1

vt 0.278534 0.30142675
vn 0.755929 0.654654 2.60503e-017
vt 0.26426705 0.263679725
v 0.434918 0.5359 -0.37665
vt 0.29280125 0.263679725
f 2/4/2 1/5/2 4/6/2

vt 0.2625 0.26426705
vn 0 -1 -0
v 0.256805 0.5359 -0.211754
vt 0.2625 0.274062975
vt 0.2625 0.29280125
f 1/7/3 5/8/3 4/9/3

vt 0.2625 0.2625
f 3/10/3 5/8/3 1/7/3

v 0.178113 0.5359 -0.211754
vt 0.2625 0.274062975
f 3/10/3 6/11/3 5/8/3

v 0 0.5359 -0.12555
vt 0.2625 0.26426705
f 7/12/3 6/11/3 3/10/3

v 0.178113 0.5359 -0.290446
vt 0.2625 0.28300525
f 6/11/3 7/12/3 8/13/3

v 0.217459 0.5359 -0.5022
vt 0.2625 0.30706825
f 7/12/3 9/14/3 8/13/3

v 0 0.5359 -0.37665
vt 0.2625 0.29280125
f 9/14/3 7/12/3 10/15/3

vt 0.2625 0.29603425
vn -0.755929 0.654654 3.6406e-017
vt 0.2625 0.3337815
vt 0.2625 0.29603425
f 7/16/4 2/17/4 10/18/4

vt 0.271400575 0.304123
vn -0.377964 0.654654 0.654654
vt 0.2625 0.34187
vt 0.2625 0.304123
f 3/19/5 2/20/5 7/21/5

vt 0.2625 0.2717684
vn -0.377964 0.654654 -0.654654
vt 0.2625 0.3095155
vt 0.2625 0.2717684
f 10/22/6 2/23/6 9/24/6

vt 0.2625 0.2625
vn 0.377964 0.654654 -0.654654
vt 0.2625 0.29333825
vt 0.2625 0.2625
f 9/25/7 2/26/7 4/27/7

v 0.256805 0.5359 -0.290446
vt 0.2625 0.28300525
f 11/28/3 9/14/3 4/9/3

f 8/13/3 9/14/3 11/28/3

usemtl merged
v 0.158734 0 -0.309825
vt 0.2625 0.7625
vn -2.31359e-019 0.0361384 -0.999347
vt 0.2625 0.9875
vt 0.2625 0.9875
v 0.276184 0 -0.309825
vt 0.2625 0.7625
f 12/29/8 8/30/8 11/31/8 13/32/8

vt 0.2625 0.9875
vn -0.999347 0.0361384 -1.41707e-018
vt 0.2625 0.9875
vt 0.2625 0.8064605
v 0.158734 0 -0.192375
vt 0.2625 0.8064605
f 6/33/9 8/34/9 12/35/9 14/36/9

usemtl merged
f 11/28/3 5/8/3 6/11/3 8/13/3

f 11/28/3 4/9/3 5/8/3

usemtl merged
v 0.276184 0 -0.192375
vt 0.4875 0.7625
vn 0.999347 0.0361384 -1.41707e-018
vt 0.4875 0.7625
vt 0.4875 0.9875
vt 0.4875 0.9875
f 15/37/10 13/38/10 11/39/10 5/40/10

vt 0.2625 0.9875
vt 0.2625 0.9875
vt 0.2625 0.9875
vt 0.2625 0.9875
f 13/41/3 15/42/3 14/43/3 12/44/3

vt 0.4875 0.8184265
vn -2.31359e-019 0.0361384 0.999347
vt 0.4875 0.9875
vt 0.4875 0.9875
vt 0.4875 0.8184265
f 15/45/11 5/46/11 6/47/11 14/48/11

