# Alias OBJ Model File
# Exported from SketchUp, (c) 2000-2012 Trimble Navigation Limited
# File units = meters

mtllib merged.mtl

g Mesh1 Mushroom_Red Model

usemtl merged
v 0.33719 0 -0.121072
vt 0.4875 0.895118
vn -2.29787e-019 0.121779 0.992557
v 0.298431 0.3159 -0.15983
vt 0.4875 0.9875
v 0.141048 0.3159 -0.15983
vt 0.4875 0.9875
v 0.10229 0 -0.121072
vt 0.4875 0.895118
f 1/1/1 2/2/1 3/3/1 4/4/1

vt 0.4875 0.7625
vn 0.992557 0.121779 -1.40745e-018
v 0.33719 0 -0.355972
vt 0.4875 0.7625
v 0.298431 0.3159 -0.317213
vt 0.4875 0.9875
vt 0.4875 0.9875
f 1/5/2 5/6/2 6/7/2 2/8/2

vt 0.2625 0.9875
vn 0 -1 -0
vt 0.2625 0.9875
vt 0.2625 0.9875
v 0.10229 0 -0.355972
vt 0.2625 0.9875
f 5/9/3 1/10/3 4/11/3 7/12/3

vt 0.2625 0.9875
vn -0.992557 0.121779 -1.40745e-018
v 0.141048 0.3159 -0.317213
vt 0.2625 0.9875
vt 0.2625 0.87260575
vt 0.2625 0.87260575
f 3/13/4 8/14/4 7/15/4 4/16/4

usemtl merged
vt 0.5125 0.536047
vt 0.5125 0.5181625
vt 0.5125 0.5181625
vt 0.5125 0.536047
f 6/17/3 2/18/3 3/19/3 8/20/3

v 0.434918 0.3159 -0.37665
vt 0.5125 0.54280125
f 6/17/3 9/21/3 2/18/3

v 0.217459 0.3159 -0.5022
vt 0.5125 0.55706825
f 6/17/3 10/22/3 9/21/3

f 8/20/3 10/22/3 6/17/3

v 0 0.3159 -0.12555
vt 0.5125 0.51426705
f 11/23/3 10/22/3 8/20/3

v 0 0.3159 -0.37665
vt 0.5125 0.54280125
f 10/22/3 11/23/3 12/24/3

vt 0.5125 0.52713625
vn -0.755929 0.654654 3.6406e-017
v 0.217459 0.567 -0.2511
vt 0.5125 0.56488325
vt 0.5125 0.52713625
f 11/25/5 13/26/5 12/27/5

v 0.217459 0.3159 -0
vt 0.521400575 0.53522475
vn -0.377964 0.654654 0.654654
vt 0.5125 0.57297175
vt 0.5125 0.53522475
f 14/28/6 13/29/6 11/30/6

v 0.434918 0.3159 -0.12555
vt 0.54993475 0.519047475
vn 0.377964 0.654654 0.654654
vt 0.5356675 0.5567945
vt 0.521400575 0.519047475
f 15/31/7 13/32/7 14/33/7

vt 0.528534 0.5325285
vn 0.755929 0.654654 2.60503e-017
vt 0.51426705 0.5125
vt 0.54280125 0.5125
f 13/34/8 15/35/8 9/36/8

vt 0.5125 0.51426705
f 15/37/3 2/18/3 9/21/3

vt 0.5125 0.5125
f 14/38/3 2/18/3 15/37/3

f 14/38/3 3/19/3 2/18/3

f 11/23/3 3/19/3 14/38/3

f 3/19/3 11/23/3 8/20/3

vt 0.5125 0.5125
vn 0.377964 0.654654 -0.654654
vt 0.5125 0.524439925
vt 0.5125 0.5125
f 10/39/9 13/40/9 9/41/9

vt 0.5125 0.5125
vn -0.377964 0.654654 -0.654654
vt 0.5125 0.54061725
vt 0.5125 0.5125
f 12/42/10 13/43/10 10/44/10

usemtl merged
vt 0.2625 0.7625
vn -2.29787e-019 0.121779 -0.992557
vt 0.2625 0.9875
vt 0.2625 0.9875
vt 0.2625 0.7625
f 7/45/11 8/46/11 6/47/11 5/48/11

