# Alias OBJ Model File
# Exported from SketchUp, (c) 2000-2012 Trimble Navigation Limited
# File units = meters

mtllib merged.mtl

g Mesh1 Oak_Dark Model

usemtl merged
v 1.57617 1.5335 -1.365
vt 0.0125 0.67426125
vn 0.5 0 -0.866025
v 0.788083 1.5335 -1.82
vt 0.02585225 0.67426125
v 0.788083 2.817 -1.82
vt 0.02585225 0.7375
vn 0.497668 0.0964695 -0.861986
v 1.57617 2.817 -1.365
vt 0.0125 0.7375
f 1/1/1 2/2/1 3/3/2 4/4/2

v 0.788083 1.27 -1.4196
vt 0.0125 0.73420275
vn 0.302516 -0.796201 -0.523973
vt 0.02585225 0.7375
vt 0.0125 0.7375
v 1.22941 1.27 -1.1648
vt 0.0125 0.73420275
f 5/5/3 2/6/3 1/7/3 6/8/3

v 0.346757 1.27 -1.1648
vt 0.0125 0.662899
vn -0.302516 -0.796201 -0.523973
v 1.80478e-015 1.5335 -1.365
vt 0.0125 0.71238925
vt 0.0125 0.71238925
vt 0.0125 0.662899
f 7/9/4 8/10/4 2/11/4 5/12/4

v 0 1.5335 -0.455
vt 0.0125 0.60543375
vn -0.605032 -0.796201 -3.68114e-016
vt 0.0125 0.60543375
vt 0.0125 0.5559435
v 0.346757 1.27 -0.6552
vt 0.0125 0.5559435
f 9/13/5 8/14/5 7/15/5 10/16/5

vt 0.0125 0.67426125
vn -1 0 -7.93309e-016
vt 0.0125 0.67426125
v 0 2.817 -0.455
vt 0.0125 0.7375
vn -0.995336 0.0964695 -6.93437e-016
v 1.80478e-015 2.817 -1.365
vt 0.0125 0.7375
f 8/17/6 9/18/6 11/19/7 12/20/7

vt 0.0125 0.67426125
vn -0.5 0 0.866025
v 0.788083 1.5335 -0
vt 0.07755675 0.67426125
v 0.788083 2.817 -0
vt 0.07755675 0.7375
vn -0.497668 0.0964695 0.861986
vt 0.0125 0.7375
f 9/21/8 13/22/8 14/23/9 11/24/9

v 0.788083 1.27 -0.4004
vt 0.05480675 0.5202917
vn -0.302516 -0.796201 0.523973
vt 0.07755675 0.569782
vt 0.0125 0.569782
vt 0.0125 0.5202917
f 15/25/10 13/26/10 9/27/10 10/28/10

v 1.22941 1.27 -0.6552
vt 0.158216 0.5915955
vn 0.302516 -0.796201 0.523973
v 1.57617 1.5335 -0.455
vt 0.180966 0.6410855
vt 0.07755675 0.6410855
vt 0.10030675 0.5915955
f 16/29/11 17/30/11 13/31/11 15/32/11

vt 0.0744545 0.698551
vn 0.605032 -0.796201 4.38273e-018
vt 0.13236375 0.698551
vt 0.15511375 0.7375
vt 0.0517045 0.7375
f 16/33/12 6/34/12 1/35/12 17/36/12

vt 0.0125 0.5744545
vn 0 -1 -0
v 0.902339 1.27 -0.795744
vt 0.0125 0.5904255
vt 0.0125 0.63236375
f 16/37/13 18/38/13 6/39/13

vt 0.0125 0.5455
f 15/40/13 18/38/13 16/37/13

v 0.673827 1.27 -0.795744
vt 0.0125 0.5904255
f 15/40/13 19/41/13 18/38/13

vt 0.0125 0.5744545
f 10/42/13 19/41/13 15/40/13

v 0.673827 1.27 -1.02426
vt 0.0125 0.61639275
f 19/41/13 10/42/13 20/43/13

vt 0.0125 0.66131825
f 10/42/13 5/44/13 20/43/13

vt 0.0125 0.63236375
f 5/44/13 10/42/13 7/45/13

v 0.902339 1.27 -1.02426
vt 0.0125 0.61639275
f 20/43/13 5/44/13 21/46/13

f 21/46/13 5/44/13 6/39/13

f 21/46/13 6/39/13 18/38/13

usemtl merged
v 0.968014 0 -0.73007
vt 0.3329625 0.2625
vn 0.998666 0.0516433 -0
v 0.968014 0 -1.08993
vt 0.37385575 0.2625
vt 0.36639275 0.38883025
vt 0.3404255 0.38883025
f 22/47/14 23/48/14 21/49/14 18/50/14

v 0.608153 0 -0.73007
vt 0.2625 0.3329625
v 0.608153 0 -1.08993
vt 0.2625 0.37385575
vt 0.2625 0.37385575
vt 0.2625 0.3329625
f 24/51/13 25/52/13 23/53/13 22/54/13

vt 0.2625 0.2625
vn -0.998666 0.0516433 -0
vt 0.2625 0.39808
vt 0.2625 0.39808
vt 0.2625 0.2625
f 24/55/15 19/56/15 20/57/15 25/58/15

vt 0.3600015 0.2625
vn -1.52886e-017 0.0516433 0.998666
vt 0.3525385 0.3987955
vt 0.32657125 0.3987955
vt 0.31910825 0.2625
f 22/59/16 18/60/16 19/61/16 24/62/16

vt 0.2625 0.2625
vn -1.52886e-017 0.0516433 -0.998666
vt 0.2625 0.38811475
vt 0.2625 0.38811475
vt 0.2625 0.2625
f 25/63/17 20/64/17 21/65/17 23/66/17

usemtl merged
vt 0.0517045 0.67426125
vn 1 0 -0
vt 0.15511375 0.67426125
vt 0.15511375 0.7375
vn 0.995336 0.0964695 3.71398e-018
v 1.57617 2.817 -0.455
vt 0.0517045 0.7375
f 17/67/18 1/68/18 4/69/19 26/70/19

vt 0.0517045 0.7375
vt 0.15511375 0.7375
v 1.24517 4.5085 -1.1739
vt 0.13339775 0.7375
vn 0.981387 0.192039 7.39332e-018
v 1.24517 4.5085 -0.6461
vt 0.0734205 0.7375
f 26/71/19 4/72/19 27/73/20 28/74/20

vt 0.02585225 0.7375
v 0.788083 4.5085 -1.4378
vt 0.0125 0.7375
vn 0.490694 0.192039 -0.849906
vt 0.0125 0.7375
vt 0.0125 0.7375
f 3/75/2 29/76/21 27/77/21 4/78/2

vt 0.0125 0.7375
vn -0.497668 0.0964695 -0.861986
v 0.330995 4.5085 -1.1739
vt 0.0125 0.7375
vn -0.490694 0.192039 -0.849906
vt 0.0125 0.7375
vt 0.0125 0.7375
f 12/79/22 30/80/23 29/81/23 3/82/22

v 0.330995 4.5085 -0.6461
vt 0.0125 0.7375
vn -0.981387 0.192039 -5.87097e-016
vt 0.0125 0.7375
vt 0.0125 0.7375
vt 0.0125 0.7375
f 31/83/24 30/84/24 12/85/7 11/86/7

vt 0.0125 0.7375
vn -0.680934 0.732345 -5.13467e-017
v 0.788083 4.9335 -0.91
vt 0.0125 0.7375
vt 0.0125 0.7375
f 31/87/25 32/88/25 30/89/25

v 0.788083 4.5085 -0.3822
vt 0.055841 0.7375
vn -0.340467 0.732345 0.589706
vt 0.02585225 0.7375
vt 0.0125 0.7375
f 33/90/26 32/91/26 31/92/26

vt 0.12926125 0.7375
vn 0.340467 0.732345 0.589706
vt 0.09927275 0.7375
vt 0.15925 0.7375
f 32/93/27 33/94/27 28/95/27

vt 0.180966 0.7375
vn 0.497668 0.0964695 0.861986
vt 0.15925 0.7375
vn 0.490694 0.192039 0.849906
vt 0.09927275 0.7375
vt 0.07755675 0.7375
f 26/96/28 28/97/29 33/98/29 14/99/28

vt 0.07755675 0.7375
vt 0.055841 0.7375
vn -0.490694 0.192039 0.849906
vt 0.0125 0.7375
vt 0.0125 0.7375
f 14/100/9 33/101/30 31/102/30 11/103/9

vn 0.5 0 0.866025
vt 0.180966 0.67426125
vt 0.180966 0.7375
f 13/22/31 17/104/31 26/105/28 14/23/28

vt 0.13339775 0.7375
vn 0.680934 0.732345 -5.13467e-017
vt 0.103409 0.7375
vt 0.0734205 0.7375
f 27/106/32 32/107/32 28/108/32

vt 0.0125 0.7124455
vn 0.340467 0.732345 -0.589706
vt 0.0125 0.7375
vt 0.0125 0.7124455
f 29/109/33 32/110/33 27/111/33

vt 0.0125 0.7375
vn -0.340467 0.732345 -0.589706
vt 0.0125 0.7375
vt 0.0125 0.7375
f 30/112/34 32/113/34 29/114/34

vt 0.0125 0.67426125
vn -0.5 0 -0.866025
vt 0.0125 0.7375
f 2/115/35 8/1/35 12/4/22 3/116/22

