# Alias OBJ Model File
# Exported from SketchUp, (c) 2000-2012 Trimble Navigation Limited
# File units = meters

mtllib merged.mtl

g Mesh1 Plate_Grass_Dirt Model

usemtl merged
v 0 0 -0
vt 0.2625 0.2625
vn 0 0 1
v 3 0 -0
vt 0.4875 0.2625
v 3 0.3 -0
vt 0.4875 0.284091
v 0 0.3 -0
vt 0.2625 0.284091
f 1/1/1 2/2/1 3/3/1 4/4/1

v 3 0 -3
vt 0.2625 0.4875
vn 0 -1 -0
vt 0.2625 0.2625
v 0 0 -3
vt 0.2625 0.4875
f 5/5/2 2/6/2 1/1/2 6/7/2

vn 1 0 -0
v 3 0.3 -3
f 2/1/3 5/2/3 7/3/3 3/4/3

vn 0 0 -1
v 0 0.3 -3
vt 0.2625 0.284091
f 5/6/4 6/1/4 8/4/4 7/8/4

vn -1 0 -0
f 6/6/5 1/1/5 4/4/5 8/8/5

usemtl merged
vn 0 1 -0
vt 0.2375 0.7375
f 3/2/6 7/9/6 8/7/6 4/1/6

