# Alias OBJ Model File
# Exported from SketchUp, (c) 2000-2012 Trimble Navigation Limited
# File units = meters

mtllib merged.mtl

g Mesh1 Rock_6 Model

usemtl merged
v 0 0 -0.601275
vt 0.7625 0.525651
vn -0.622396 0.587155 0.517564
v 0.5 0 -0
vt 0.7863285 0.525651
v 0.516773 0.34 -0.365546
vt 0.7625 0.57338125
v 0.311522 0.34 -0.61237
vt 0.7625 0.57338125
f 1/1/1 2/2/1 3/3/1 4/4/1

v 0.286158 0 -1
vt 0.7625 0.61363625
vn 0 -1 -0
v 0.832586 0 -0.805538
vt 0.7625 0.59153825
v 1 0 -0.5
vt 0.7625 0.55681825
vt 0.7625 0.5125
vt 0.7625 0.56832675
f 5/5/2 6/6/2 7/7/2 2/8/2 1/9/2

vt 0.7625 0.5125
vn 0.271401 0.587155 -0.762621
vt 0.7625 0.5125
v 0.378312 0.34 -0.705433
vt 0.7625 0.5125
v 0.661429 0.34 -0.604677
vt 0.7625 0.5125
f 6/10/3 5/11/3 8/12/3 9/13/3

vt 0.7625 0.5125
vn -0.657639 0.587155 -0.471975
vt 0.7625 0.5125
vt 0.7625 0.5243386
vt 0.7625 0.5243386
f 5/14/4 1/15/4 4/16/4 8/17/4

vt 0.79299 0.58016275
vn 0 1 -0
vt 0.78540025 0.5695875
vt 0.80872425 0.54153925
v 0.694871 0.34 -0.543644
vt 0.8289625 0.56177775
vt 0.8251625 0.56871325
f 8/18/5 4/19/5 3/20/5 10/21/5 9/22/5

vt 0.7901765 0.5125
vn 0.572385 0.587155 0.572385
vt 0.8705295 0.5125
vt 0.8495185 0.524140325
vt 0.820897 0.524140325
f 2/23/6 7/24/6 10/25/6 3/26/6

vt 0.7625 0.5125
vn 0.709894 0.587155 -0.388973
vt 0.78481375 0.5125
vt 0.774142775 0.5125
vt 0.766234375 0.5125
f 7/27/7 6/28/7 9/29/7 10/30/7

