# Alias OBJ Model File
# Exported from SketchUp, (c) 2000-2012 Trimble Navigation Limited
# File units = meters

mtllib merged.mtl

g Mesh1 Rock_1 Model

usemtl merged
v 0.2124 0.64 -0.510955
vt 0.774136375 0.558063
vn 0 1 -0
v 0.4012 0.64 -0.183944
vt 0.795591 0.5209027
v 0.7788 0.64 -0.183944
vt 0.8385 0.5209027
v 0.9676 0.64 -0.510955
vt 0.8599545 0.558063
v 0.7788 0.64 -0.837966
vt 0.8385 0.5952235
v 0.4012 0.64 -0.837966
vt 0.795591 0.5952235
f 1/1/1 2/2/1 3/3/1 4/4/1 5/5/1 6/6/1

vt 0.7625 0.583691
vn -0.83233 0.276229 0.480546
vt 0.7625 0.583691
v 0 0 -0.510955
vt 0.7625 0.5125
v 0.295 0 -1.80478e-016
vt 0.766761375 0.5125
f 2/7/2 1/8/2 7/9/2 8/10/2

vt 0.7625 0.56765225
vn -0.83233 0.276229 -0.480546
vt 0.7625 0.56765225
v 0.295 0 -1.02191
vt 0.7625 0.5125
vt 0.7625 0.5125
f 1/11/3 6/12/3 9/13/3 7/14/3

vt 0.7625 0.5125
vn 3.79073e-016 0.276229 -0.961092
vt 0.7625 0.543594
vt 0.7625 0.543594
v 0.885 0 -1.02191
vt 0.7625 0.5125
f 9/15/4 6/16/4 5/17/4 10/18/4

v 1.18 0 -0.510955
vt 0.7625 0.5125
vn 0.83233 0.276229 -0.480546
vt 0.800284 0.5125
vt 0.788216 0.53557475
vt 0.7625 0.53557475
f 11/19/5 10/20/5 5/21/5 4/22/5

vt 0.7625 0.5125
vn 0 -1 -0
vt 0.7625 0.558063
vt 0.7625 0.61612625
vt 0.7625 0.61612625
vt 0.7625 0.558063
v 0.885 0 -0
vt 0.7625 0.5125
f 8/23/6 7/24/6 9/25/6 10/26/6 11/27/6 12/28/6

vt 0.800284 0.5125
vn 0.83233 0.276229 0.480546
vt 0.8673295 0.5125
vt 0.85526125 0.5516135
vt 0.81235225 0.5516135
f 12/29/7 11/30/7 4/31/7 3/32/7

vt 0.85056825 0.5125
vn -1.93868e-016 0.276229 0.961092
vt 0.8385 0.5756715
vt 0.795591 0.5756715
vt 0.78352275 0.5125
f 12/33/8 3/34/8 2/35/8 8/36/8

