# Alias OBJ Model File
# Exported from SketchUp, (c) 2000-2012 Trimble Navigation Limited
# File units = meters

mtllib merged.mtl

g Mesh1 Tall_Rock_3 Model

usemtl merged
v 1.59349 0 -0.46
vt 0.9329545 0.5125
vn 0.480909 0.273687 0.83296
v 1.43414 0.56 -0.552
vt 0.9225 0.55377275
vn 0.483182 0.257178 0.836896
v 0.796743 0.56 -0.184
vt 0.83886375 0.55377275
v 0.796743 0 -0
vt 0.828409 0.5125
f 1/1/1 2/2/2 3/3/2 4/4/1

vt 0.80227275 0.5125
vn 0.961819 0.273687 -2.22017e-018
v 1.59349 0 -1.38
vt 0.90681825 0.5125
v 1.43414 0.56 -1.288
vt 0.89636375 0.516603875
vn 0.961979 0.273124 -2.82111e-018
vt 0.81272725 0.516603875
f 1/5/3 5/6/3 6/7/4 2/8/4

v 0.796743 0 -1.84
vt 0.840539 0.709091
vn 0 1 -0
v 0 0 -1.38
vt 0.7625 0.65681825
v 0 0 -0.46
vt 0.7625 0.55227275
vt 0.840539 0.5125
vt 0.931078 0.55227275
vt 0.931078 0.65681825
f 7/9/5 8/10/5 9/11/5 4/12/5 1/13/5 5/14/5

vt 0.7625 0.5125
vn -0.480909 0.273687 -0.83296
v 0.159349 0.56 -1.288
vt 0.7625 0.5289935
v 0.796743 0.56 -1.656
vt 0.7625 0.5289935
vt 0.7625 0.5125
f 8/15/6 10/16/6 11/17/6 7/18/6

v 0.159349 0.56 -0.761934
vt 0.7625 0.5661625
vn -0.961979 0.273124 1.96752e-017
vt 0.7625 0.5661625
vn -0.961819 0.273687 1.96285e-018
vt 0.7625 0.5125
vt 0.7625 0.5125
v 0.159349 0.56 -0.552
vt 0.7625 0.5661625
f 12/19/7 10/20/8 8/21/8 9/22/8 13/23/7

vt 0.7681078 0.64636375
vn -4.10779e-017 1 -9.6453e-017
vt 0.7681078 0.58658325
v 0.747635 0.56 -0.761934
vt 0.8349585 0.58658325
v 0.659291 0.56 -1.2439
vt 0.8249195 0.64135275
v 1.11544 0.56 -1.472
vt 0.87675475 0.66727275
vt 0.840539 0.68818175
f 10/24/9 12/25/9 14/26/9 15/27/9 16/28/9 11/29/9

vt 0.7625 0.56615025
vn 3.40064e-018 -0.0293502 -0.999569
v 0.261332 0.92 -0.772504
vt 0.7625 0.607077
vn 3.58843e-018 -0.00507502 -0.999987
v 0.755492 0.92 -0.772504
vt 0.7625 0.607077
vt 0.7625 0.56615025
f 12/30/10 17/31/11 18/32/11 14/33/10

v 0.261332 0.92 -0.59616
vt 0.7625 0.6086815
vn -0.977205 0.212298 -3.28845e-018
vt 0.7625 0.6086815
f 19/34/12 17/35/12 12/19/7 13/23/7

v 0.421955 1.97 -0.628896
vt 0.7625 0.72854
vn -0.988501 0.151216 -4.39517e-017
v 0.421955 1.97 -0.752337
vt 0.7625 0.72854
vt 0.7625 0.607834
vt 0.7625 0.607834
f 20/36/13 21/37/13 17/38/12 19/39/12

v 1.17153 1.97 -0.628896
vt 0.8831285 0.5714655
vn -8.62943e-018 1 -3.25298e-016
v 1.17153 1.97 -0.839075
vt 0.8831285 0.5953495
v 0.967061 1.97 -0.998049
vt 0.85989325 0.61341475
v 0.741895 1.97 -0.894036
vt 0.83430625 0.601595
v 0.767868 1.97 -0.752337
vt 0.83725775 0.58549275
vt 0.7979495 0.58549275
vt 0.7979495 0.5714655
v 0.796743 1.97 -0.412512
vt 0.840539 0.5468765
f 22/40/14 23/41/14 24/42/14 25/43/14 26/44/14 21/45/14 20/46/14 27/47/14

v 1.33215 0.92 -0.59616
vt 0.8177455 0.580452
vn 0.977205 0.212298 -1.71434e-018
v 1.33215 0.92 -0.896416
vt 0.8518655 0.580452
vt 0.8453495 0.70115825
vn 0.988501 0.151216 -0
vt 0.8214655 0.70115825
f 28/48/15 29/49/15 23/50/16 22/51/16

vt 0.81272725 0.516807675
vt 0.89636375 0.516807675
v 1.33215 0.92 -1.2144
vt 0.888 0.5593265
vn 0.962139 0.272561 -3.42206e-018
vt 0.8518655 0.5593265
vt 0.8177455 0.5593265
f 2/52/4 6/53/4 30/54/17 29/55/15 28/56/15

vt 0.7625 0.5125
vn 0.478709 0.288704 -0.829149
v 1.06445 0.92 -1.36896
vt 0.7625 0.54033625
vn 0.476392 0.30365 -0.825135
vt 0.7625 0.54033625
vt 0.7625 0.5125
f 16/57/18 31/58/19 30/59/19 6/60/18

vt 0.7625 0.5449095
vn -0.439172 0.189172 -0.878261
v 0.681284 0.92 -1.17736
vt 0.7625 0.58657075
vt 0.7625 0.58657075
vt 0.7625 0.5449095
f 15/61/20 32/62/20 31/63/20 16/64/20

v 0.718388 0.92 -0.974932
vt 0.7625 0.6071905
vn -0.983463 0.0174419 0.180266
vt 0.7625 0.6071905
vn -0.983261 0.0267526 0.180229
vt 0.7625 0.56626675
vt 0.7625 0.56626675
vt 0.7625 0.6071905
f 33/65/21 32/66/22 15/67/22 14/68/22 18/69/21

vt 0.8274185 0.63379075
vn -4.45432e-016 1 7.87353e-017
vt 0.831635 0.61078775
v 1.04005 0.92 -1.12352
vt 0.868188 0.627673
vt 0.90138125 0.6018655
vt 0.90138125 0.638
vt 0.87096025 0.65556375
f 32/70/23 33/71/23 34/72/23 29/73/23 30/74/23 31/75/23

vt 0.7625 0.59897175
vn -0.418044 0.0790812 -0.904978
vt 0.7625 0.71866475
vt 0.7625 0.71866475
vt 0.7625 0.59897175
f 33/76/24 25/77/24 24/78/24 34/79/24

vt 0.7625 0.72467925
vn -0.98358 0.00812973 0.180287
vt 0.7625 0.72467925
vt 0.7625 0.60535725
vt 0.7625 0.60535725
f 26/80/25 25/81/25 33/82/21 18/83/21

vt 0.7625 0.6028405
vt 0.7625 0.7221805
vn 3.7741e-018 0.0192032 -0.999816
vt 0.7625 0.7221805
vt 0.7625 0.6028405
f 17/84/11 21/85/26 26/86/26 18/87/11

vt 0.7625 0.580049
vn 0.608117 0.13574 -0.782156
vt 0.7625 0.700482
vt 0.7625 0.700482
vt 0.7625 0.580049
f 34/88/27 24/89/27 23/90/27 29/91/27

vt 0.77613625 0.5125
vn 0.480909 0.273687 -0.83296
vt 0.765681825 0.5125
vt 0.7625 0.5125
vt 0.7625 0.5125
vt 0.7625 0.5125
f 7/92/28 11/93/28 16/94/18 6/95/18 5/96/28

vt 0.9225 0.55523225
vt 0.91497275 0.59737925
vn 0.492532 0.172187 0.853091
v 0.796743 0.92 -0.28704
vt 0.84471825 0.59737925
vt 0.83886375 0.55523225
f 2/97/2 28/98/29 35/99/29 3/100/2

vt 0.91497275 0.602238
vt 0.9010255 0.72219325
vn 0.497344 0.102938 0.861425
vt 0.85184725 0.72219325
vt 0.84471825 0.602238
f 28/101/29 22/102/30 27/103/30 35/104/29

vt 0.8121 0.61155775
vn -0.492532 0.172187 0.853091
vt 0.804971 0.73151325
vn -0.497344 0.102938 0.861425
vt 0.7625 0.73151325
vt 0.7625 0.61155775
f 35/105/31 27/106/32 20/107/32 19/108/31

vt 0.8179545 0.57701525
vn -0.483182 0.257178 0.836896
vt 0.8121 0.6191625
vt 0.7625 0.6191625
vt 0.7625 0.57701525
f 3/109/33 35/110/31 19/111/31 13/112/33

vt 0.828409 0.5125
vn -0.480909 0.273687 0.83296
vt 0.8179545 0.57855225
vt 0.7625 0.57855225
vt 0.7625 0.5125
f 4/113/34 3/114/33 13/115/33 9/116/34

