# Alias OBJ Model File
# Exported from SketchUp, (c) 2000-2012 Trimble Navigation Limited
# File units = meters

mtllib merged.mtl

g Mesh1 Tree Model

usemtl merged
v 0 0 -1.18
vt 0.0125 0.5125
vn 7.96848e-018 0.282945 -0.959136
v 0.177 0.6 -1.003
vt 0.0125 0.53314625
v 1.003 0.6 -1.003
vt 0.0125 0.53314625
v 1.18 0 -1.18
vt 0.0125 0.5125
f 1/1/1 2/2/1 3/3/1 4/4/1

v 0.177 0.6 -0.177
vt 0.0125 0.57108675
vn -0.959136 0.282945 6.61214e-018
vt 0.0125 0.57108675
vt 0.0125 0.5125
v 0 0 -0
vt 0.0125 0.5125
f 5/5/2 2/6/2 1/7/2 6/8/2

vt 0.0125 0.520113625
vn 0 -1 -0
v 0.0826 0.6 -0.0826
vt 0.0125 0.5125
vt 0.0125 0.61397725
f 5/9/3 7/10/3 2/11/3

v 1.0974 0.6 -0.0826
vt 0.0125 0.5125
f 7/10/3 5/9/3 8/12/3

v 1.003 0.6 -0.177
vt 0.0125 0.520113625
f 8/12/3 5/9/3 9/13/3

v 1.18 0 -0
vt 0.134091 0.5125
vn 7.96848e-018 0.282945 0.959136
vt 0.11397725 0.57108675
vt 0.020113625 0.57108675
f 10/14/4 9/15/4 5/16/4 6/8/4

vt 0.0125 0.5125
vn 0.959136 0.282945 1.61065e-018
vt 0.134091 0.5125
vt 0.11397725 0.53314625
vt 0.020113625 0.53314625
f 10/17/5 4/18/5 3/19/5 9/20/5

vt 0.0125 0.5125
v 0.786697 0 -0.393303
vt 0.0125 0.5446935
vt 0.0125 0.634091
f 10/21/3 11/22/3 4/23/3

v 0.393303 0 -0.393303
vt 0.0125 0.5446935
f 10/21/3 12/24/3 11/22/3

f 6/8/3 12/24/3 10/21/3

v 0.393303 0 -0.786697
vt 0.0125 0.5893975
f 12/24/3 6/8/3 13/25/3

vt 0.0125 0.634091
f 1/26/3 13/25/3 6/8/3

f 13/25/3 1/26/3 4/23/3

v 0.786697 0 -0.786697
vt 0.0125 0.5893975
f 13/25/3 4/23/3 14/27/3

f 14/27/3 4/23/3 11/22/3

usemtl merged
v 0.837838 -0.495868 -0.342162
vt 0.288882 0.2625
vn 0.994724 0.102591 6.0893e-019
v 0.837838 -0.495868 -0.837838
vt 0.345209 0.2625
vt 0.3393975 0.2625
vt 0.2946935 0.2625
f 15/28/6 16/29/6 14/30/6 11/31/6

v 0.342162 -0.495868 -0.342162
vt 0.2625 0.288882
v 0.342162 -0.495868 -0.837838
vt 0.2625 0.345209
vt 0.2625 0.345209
vt 0.2625 0.288882
f 17/32/3 18/33/3 16/34/3 15/35/3

vt 0.2625 0.2625
vn -0.994724 0.102591 -5.80807e-018
vt 0.2625 0.2625
vt 0.2625 0.2625
vt 0.2625 0.2625
f 12/36/7 13/37/7 18/38/7 17/39/7

usemtl merged
f 12/24/3 13/25/3 14/27/3 11/22/3

usemtl merged
vt 0.2625 0.2625
vn 9.37084e-019 0.102591 -0.994724
vt 0.2625 0.2625
vt 0.2625 0.2625
vt 0.2625 0.2625
f 18/40/8 13/41/8 14/42/8 16/43/8

vt 0.345209 0.2625
vn 7.35408e-018 0.102591 0.994724
vt 0.3393975 0.2625
vt 0.2946935 0.2625
vt 0.288882 0.2625
f 15/44/9 11/45/9 12/46/9 17/47/9

usemtl merged
vt 0.0125 0.61397725
v 1.0974 0.6 -1.0974
vt 0.0125 0.6247045
f 3/48/3 19/49/3 9/13/3

f 2/11/3 19/49/3 3/48/3

v 0.0826 0.6 -1.0974
vt 0.0125 0.6247045
f 2/11/3 20/50/3 19/49/3

f 20/50/3 2/11/3 7/10/3

v 0.23482 1.34304 -0.23482
vt 0.0125 0.65486825
vn -0.979654 0.200693 -1.44372e-018
v 0.23482 1.34304 -0.94518
vt 0.0125 0.65486825
vt 0.0125 0.5686785
vt 0.0125 0.5686785
f 21/51/10 22/52/10 20/53/10 7/54/10

vt 0.0125 0.526684
v 0.153636 1.34304 -0.153636
vt 0.0125 0.517458625
vt 0.0125 0.60740675
f 21/55/3 23/56/3 22/57/3

v 1.02636 1.34304 -0.153636
vt 0.0125 0.517458625
f 23/56/3 21/55/3 24/58/3

v 0.94518 1.34304 -0.23482
vt 0.0125 0.526684
f 24/58/3 21/55/3 25/59/3

vt 0.1247045 0.5686785
vn -3.998e-018 0.200693 0.979654
vt 0.10740675 0.65486825
vt 0.026684 0.65486825
vt 0.0125 0.5686785
f 8/60/11 25/61/11 21/62/11 7/63/11

vt 0.0125 0.54176725
vn 0.979654 0.200693 -1.44372e-018
vt 0.1247045 0.54176725
v 0.94518 1.34304 -0.94518
vt 0.10740675 0.62795725
vt 0.026684 0.62795725
f 8/64/12 19/65/12 26/66/12 25/67/12

f 8/12/3 9/13/3 19/49/3

vt 0.0125 0.54176725
vn -3.998e-018 0.200693 -0.979654
vt 0.0125 0.62795725
vt 0.0125 0.62795725
vt 0.0125 0.54176725
f 20/68/13 22/69/13 26/70/13 19/71/13

v 1.02636 1.34304 -1.02636
vt 0.0125 0.61663225
vt 0.0125 0.60740675
f 22/57/3 27/72/3 26/73/3

v 0.153636 1.34304 -1.02636
vt 0.0125 0.61663225
f 22/57/3 28/74/3 27/72/3

f 28/74/3 22/57/3 23/56/3

v 0.59 2.66304 -0.59
vt 0.0125 0.7375
vn -0.949465 0.313873 -0
vt 0.0125 0.6503855
vt 0.0125 0.6503855
f 29/75/14 28/76/14 23/77/14

vt 0.0125 0.7375
vn -2.05913e-017 0.313873 -0.949465
vt 0.0125 0.608298
vt 0.0125 0.608298
f 29/78/15 27/79/15 28/80/15

vt 0.11663225 0.608298
vn 0.949465 0.313873 -0
vt 0.0670455 0.7375
vt 0.017458625 0.608298
f 27/81/16 29/82/16 24/83/16

vt 0.11663225 0.6503855
vn -2.05913e-017 0.313873 0.949465
vt 0.0670455 0.7375
vt 0.017458625 0.6503855
f 24/84/17 29/85/17 23/86/17

f 24/58/3 25/59/3 27/72/3

f 26/73/3 27/72/3 25/59/3

