# Alias OBJ Model File
# Exported from SketchUp, (c) 2000-2012 Trimble Navigation Limited
# File units = meters

mtllib merged.mtl

g Mesh1 Trunk Model

usemtl merged
v 0.80369 0 -0
vt 0.2625 0.2625
vn 0.914197 0.40527 6.74643e-018
v 0.80369 0 -0.80369
vt 0.34132825 0.2625
v 0.701729 0.23 -0.701729
vt 0.329742 0.2625
vn 0.966384 0.257103 3.72362e-018
v 0.701729 0.23 -0.101961
vt 0.2625 0.2625
f 1/1/1 2/2/1 3/3/2 4/4/2

v 0 0 -0
vt 0.2625 0.2625
vn 0 -1 -0
v 0 0 -0.80369
vt 0.2625 0.34132825
vt 0.2625 0.34132825
vt 0.2625 0.2625
f 5/5/3 6/6/3 2/7/3 1/8/3

v 0.101961 0.23 -0.101961
vt 0.2625 0.2785895
vn -0.966384 0.257103 -1.39544e-018
v 0.101961 0.23 -0.701729
vt 0.2625 0.2785895
vt 0.2625 0.2625
vn -0.914197 0.40527 3.05163e-018
f 7/9/4 8/10/4 6/11/5 5/5/5

v 0.163841 0.83 -0.163841
vt 0.2625 0.3457305
vn -0.994724 0.102591 -5.80807e-018
v 0.163841 0.83 -0.639848
vt 0.2625 0.3457305
vt 0.2625 0.277187
vt 0.2625 0.277187
f 9/12/6 10/13/6 8/14/4 7/15/4

usemtl merged
vt 0.26861835 0.51861835
vn 0 1 -0
v 0.639848 0.83 -0.163841
vt 0.32271 0.51861835
v 0.639848 0.83 -0.639848
vt 0.32271 0.57271
vt 0.26861835 0.57271
f 9/16/7 11/17/7 12/18/7 10/19/7

usemtl merged
vt 0.329742 0.277187
vn 4.92231e-018 0.257103 0.966384
vt 0.32271 0.3457305
vn 7.35408e-018 0.102591 0.994724
vt 0.26861835 0.3457305
vt 0.2625 0.277187
f 4/20/8 11/21/9 9/22/9 7/23/8

vt 0.2625 0.2678177
vt 0.329742 0.2678177
vt 0.32271 0.33636125
vn 0.994724 0.102591 6.0893e-019
vt 0.26861835 0.33636125
f 4/24/2 3/25/2 12/26/10 11/27/10

vt 0.2625 0.2678177
vn 3.78341e-018 0.257103 -0.966384
vt 0.2625 0.33636125
vn 9.37084e-019 0.102591 -0.994724
vt 0.2625 0.33636125
vt 0.2625 0.2678177
f 8/28/11 10/29/12 12/30/12 3/31/11

vt 0.2625 0.2625
vn 6.53637e-018 0.40527 -0.914197
vt 0.2625 0.2625
vt 0.2625 0.2625
vt 0.2625 0.2625
f 6/32/13 8/33/11 3/34/11 2/35/13

vt 0.34132825 0.2625
vn 2.36906e-018 0.40527 0.914197
vt 0.329742 0.2785895
vt 0.2625 0.2785895
f 1/36/14 4/37/8 7/38/8 5/5/14

