# Alias OBJ Model File
# Exported from SketchUp, (c) 2000-2012 Trimble Navigation Limited
# File units = meters

mtllib merged.mtl

g Mesh1 Trunk_Alt Model

usemtl merged
v 0.80369 0 -0
vt 0.2625 0.2625
vn 0.914197 0.40527 6.74643e-018
v 0.80369 0 -0.80369
vt 0.34132825 0.2625
v 0.701729 0.23 -0.701729
vt 0.329742 0.2625
vn 0.966384 0.257103 3.72362e-018
v 0.701729 0.23 -0.101961
vt 0.2625 0.2625
f 1/1/1 2/2/1 3/3/2 4/4/2

v 0 0 -0
vt 0.2625 0.2625
vn 0 -1 -0
v 0 0 -0.80369
vt 0.2625 0.34132825
vt 0.2625 0.34132825
vt 0.2625 0.2625
f 5/5/3 6/6/3 2/7/3 1/8/3

v 0.101961 0.23 -0.101961
vt 0.2625 0.2785895
vn -0.966384 0.257103 -1.39544e-018
v 0.101961 0.23 -0.701729
vt 0.2625 0.2785895
vt 0.2625 0.2625
vn -0.914197 0.40527 3.05163e-018
f 7/9/4 8/10/4 6/11/5 5/5/5

vt 0.2625 0.277187
v 0.11813 0.386775 -0.276564
vt 0.2625 0.295097
vn -0.994724 0.102591 -5.80807e-018
vt 0.2625 0.277187
f 7/12/4 9/13/6 8/14/4

v 0.163841 0.83 -0.163841
vt 0.2625 0.3457305
f 9/13/6 7/12/4 10/15/6

vt 0.329742 0.277187
vn 4.92231e-018 0.257103 0.966384
v 0.639848 0.83 -0.163841
vt 0.32271 0.3457305
vn 7.35408e-018 0.102591 0.994724
vt 0.26861835 0.3457305
vt 0.2625 0.277187
f 4/16/7 11/17/8 10/18/8 7/19/7

vt 0.2625 0.2678177
vt 0.329742 0.2678177
v 0.639848 0.83 -0.639848
vt 0.32271 0.33636125
vn 0.994724 0.102591 6.0893e-019
vt 0.26861835 0.33636125
f 4/20/2 3/21/2 12/22/9 11/23/9

vt 0.2625 0.2678177
vn 3.78341e-018 0.257103 -0.966384
v 0.163841 0.83 -0.639848
vt 0.2625 0.33636125
vn 9.37084e-019 0.102591 -0.994724
vt 0.2625 0.33636125
vt 0.2625 0.2678177
f 8/24/10 13/25/11 12/26/11 3/27/10

v 0.11813 0.386775 -0.527126
vt 0.2625 0.295097
vt 0.2625 0.3457305
f 8/14/4 14/28/6 13/29/6

f 8/14/4 9/13/6 14/28/6

v -0.163841 0.479545 -0.331687
vt 0.2625 0.2847165
vn -0.312526 -0.949909 -2.93268e-016
v -0.163841 0.479545 -0.472002
vt 0.2625 0.2847165
vt 0.2625 0.2625
vt 0.2625 0.2625
f 15/30/12 16/31/12 14/32/12 9/33/12

usemtl merged
v -0.147297 0.639957 -0.348231
vt 0.2625 0.5706215
vn -0.994724 0.102591 -3.20342e-015
v -0.147297 0.639957 -0.455458
vt 0.2625 0.5706215
vt 0.2625 0.55229625
vt 0.2625 0.55229625
f 17/34/13 18/35/13 16/36/13 15/37/13

usemtl merged
vt 0.2625 0.2625
vn -0.112073 0.9937 -3.29727e-016
v 0.147672 0.673225 -0.306107
vt 0.2625 0.275249
v 0.147672 0.673225 -0.497583
vt 0.2625 0.275249
vt 0.2625 0.2625
f 17/38/14 19/39/14 20/40/14 18/41/14

vt 0.2625 0.29752575
vn -0.153326 0.117012 0.981223
vt 0.2625 0.33030175
vt 0.2625 0.32649525
vt 0.2625 0.3081405
f 9/42/15 19/43/15 17/44/15 15/45/15

vt 0.2625 0.32782075
f 10/15/6 19/46/6 9/13/6

f 19/46/6 10/15/6 13/29/6

usemtl merged
vt 0.26861835 0.57271
vn 0 1 -0
vt 0.26861835 0.51861835
vt 0.32271 0.51861835
vt 0.32271 0.57271
f 13/47/16 10/48/16 11/49/16 12/50/16

usemtl merged
vt 0.2625 0.32782075
f 19/46/6 13/29/6 20/51/6

f 20/51/6 13/29/6 14/28/6

vt 0.2625 0.28696725
vn -0.153326 0.117012 -0.981223
vt 0.2625 0.29758225
vt 0.2625 0.315937
vt 0.2625 0.3197435
f 14/52/17 16/53/17 18/54/17 20/55/17

vt 0.2625 0.2625
vn 6.53637e-018 0.40527 -0.914197
vt 0.2625 0.2625
vt 0.2625 0.2625
vt 0.2625 0.2625
f 6/56/18 8/57/10 3/58/10 2/59/18

vt 0.34132825 0.2625
vn 2.36906e-018 0.40527 0.914197
vt 0.329742 0.2785895
vt 0.2625 0.2785895
f 1/60/19 4/61/7 7/62/7 5/5/19

