# Alias OBJ Model File
# Exported from SketchUp, (c) 2000-2012 Trimble Navigation Limited
# File units = meters

mtllib merged.mtl

g Mesh1 Wood_Fence_Broken Model

usemtl merged
v 0.5 1.1 4.33147e-015
vt 0.30681825 0.2625
vn 0 1 -0
v 0.5 1.1 -0.5
vt 0.30681825 0.30681825
v 0 1.1 -0.5
vt 0.2625 0.30681825
v 0 1.1 -0
vt 0.2625 0.2625
f 1/1/1 2/2/1 3/3/1 4/4/1

v 0.5 0 4.33147e-015
vt 0.2625 0.2625
vn 1 0 -0
v 0.5 0 -0.5
vt 0.30681825 0.2625
vt 0.30681825 0.375
vt 0.2625 0.375
f 5/5/2 6/6/2 2/7/2 1/8/2

v 0 0 -0.5
vn 0 -1 -0
vt 0.2625 0.30681825
vt 0.2625 0.2625
v 0 0 -0
f 7/3/3 6/9/3 5/10/3 8/4/3

vn 0 0 -1
v 0.1 0.5 -0.5
vt 0.2625 0.30681825
vt 0.2625 0.2625
f 7/4/4 9/11/4 6/12/4

vt 0.2625 0.375
f 9/11/4 7/4/4 3/13/4

vn -1 0 -0
vt 0.2625 0.375
f 4/13/5 3/14/5 7/12/5 8/4/5

vn 0 0 1
f 8/4/6 5/6/6 1/7/6 4/13/6

v 0.1 1 -0.5
vt 0.2625 0.36363625
f 9/11/4 3/13/4 10/15/4

v 0.4 1 -0.5
vt 0.2625 0.36363625
f 10/15/4 3/13/4 11/16/4

f 2/14/4 11/16/4 3/13/4

v 0.4 0.5 -0.5
vt 0.2625 0.30681825
f 2/14/4 12/17/4 11/16/4

f 6/12/4 12/17/4 2/14/4

f 12/17/4 6/12/4 9/11/4

v 0.1 0.5 -0.682889
vt 0.2625 0.327601
v 0.4 0.5 -0.682889
vt 0.2625 0.327601
f 13/18/3 14/19/3 12/17/3 9/11/3

usemtl merged
vt 0.2625 0.58537975
vn -1.29983e-014 -0.444287 -0.895885
v 0.1 0.625 -0.744879
vt 0.2625 0.601235
v 0.4 0.625 -0.744879
vt 0.2625 0.601235
vt 0.2625 0.58537975
f 13/20/7 15/21/7 16/22/7 14/23/7

usemtl merged
vt 0.2625 0.36363625
vn -1 -6.17252e-016 -3.51834e-014
v 0.1 1 -0.682889
vt 0.2625 0.36363625
v 0.1 0.875 -0.791959
vt 0.2625 0.34943175
v 0.1 0.75 -0.682889
vt 0.2625 0.33522725
vt 0.2625 0.32102275
vt 0.2625 0.30681825
f 10/24/8 17/25/8 18/26/8 19/27/8 15/28/8 13/29/8 9/9/8

vt 0.2954545 0.30681825
v 0.4 1 -0.682889
vt 0.2954545 0.327601
vt 0.2625 0.327601
vt 0.2625 0.30681825
f 11/30/1 20/31/1 17/32/1 10/33/1

vn 1 3.74187e-016 2.35669e-014
vt 0.327601 0.30681825
vt 0.3346455 0.32102275
v 0.4 0.75 -0.682889
vt 0.327601 0.33522725
v 0.4 0.875 -0.791959
vt 0.33999525 0.34943175
vt 0.327601 0.36363625
vt 0.30681825 0.36363625
f 12/2/9 14/34/9 16/35/9 21/36/9 22/37/9 20/38/9 11/39/9

usemtl merged
vt 0.2625 0.52602125
vn 9.80403e-017 0.444287 -0.895885
vt 0.2625 0.54187675
vt 0.2625 0.54187675
vt 0.2625 0.52602125
f 15/40/10 19/41/10 21/42/10 16/43/10

vt 0.2625 0.6152375
vn -4.23582e-016 -0.65746 -0.75349
vt 0.2625 0.63408925
vt 0.2625 0.63408925
vt 0.2625 0.6152375
f 19/44/11 18/45/11 22/46/11 21/47/11

vt 0.2625 0.51575255
vn -1.09386e-014 0.65746 -0.75349
vt 0.2625 0.53460425
vt 0.2625 0.53460425
vt 0.2625 0.51575255
f 18/48/12 17/49/12 20/50/12 22/51/12

g Mesh2 Wood_Fence_Broken Model

usemtl merged
v 0.5 0 -3
v 0 0 -3
v 0 1.1 -3
v 0.5 1.1 -3
f 23/12/4 24/4/4 25/13/4 26/14/4

v 0.5 0 -2.5
vt 0.2625 0.4875
v 8.66294e-015 0 -2.5
vt 0.2625 0.4875
vt 0.2625 0.4875
vt 0.2625 0.4875
f 27/52/3 28/53/3 24/54/3 23/55/3

v 0.4 0.5 -2.5
vt 0.2625 0.2625
f 27/6/6 29/30/6 28/56/6

v 0.5 1.1 -2.5
f 29/30/6 27/6/6 30/7/6

vt 0.4875 0.375
vt 0.4875 0.375
vt 0.4875 0.2625
vt 0.4875 0.2625
f 26/57/2 30/58/2 27/59/2 23/60/2

v 8.66294e-015 1.1 -2.5
vt 0.2625 0.4875
vt 0.30681825 0.4875
vt 0.30681825 0.4875
f 25/54/1 31/61/1 30/62/1 26/63/1

vt 0.2625 0.2625
vt 0.2625 0.2625
vt 0.2625 0.375
vt 0.2625 0.375
f 24/64/5 28/65/5 31/66/5 25/67/5

v 0.1 0.5 -2.5
vt 0.2625 0.375
f 28/56/6 32/33/6 31/68/6

f 32/33/6 28/56/6 29/30/6

v 0.1 0.113494 -1.60273
vt 0.2625 0.42237225
vn -4.46711e-015 -0.918416 -0.395616
vt 0.2625 0.4875
vt 0.2625 0.4875
v 0.4 0.113494 -1.60273
vt 0.2625 0.42237225
f 33/69/13 32/70/13 29/71/13 34/72/13

v 0.1 0.33 -1.47773
vt 0.2625 0.2875
vn -1 1.98451e-014 -7.82483e-015
v 0.1 0.351109 -1.23609
vt 0.2625 0.28989875
v 0.1 0.546506 -1.35273
vt 0.2625 0.312103
v 0.1 1 -2.5
vt 0.2625 0.36363625
vt 0.2625 0.30681825
vt 0.2625 0.262897
v 0.1 0.169417 -1.4496
vt 0.2625 0.26925195
f 35/73/14 36/74/14 37/75/14 38/76/14 32/77/14 33/78/14 39/79/14

usemtl merged
vt 0.2625 0.5125
vn 1.41901e-014 -0.996206 0.0870235
vt 0.2625 0.5125
v 0.4 0.33 -1.47773
vt 0.2954545 0.5125
v 0.4 0.351109 -1.23609
vt 0.2954545 0.5125
f 36/80/15 35/81/15 40/82/15 41/83/15

vt 0.2625 0.5659195
vn 2.81087e-014 0.172591 0.984993
vt 0.2625 0.5473935
v 0.4 0.169417 -1.4496
vt 0.2954545 0.5473935
vt 0.2954545 0.5659195
f 35/84/16 39/85/16 42/86/16 40/87/16

vt 0.2625 0.5125
vn 2.88024e-014 -0.939325 0.343028
vt 0.2625 0.5125
vt 0.2954545 0.5125
vt 0.2954545 0.5125
f 39/88/17 33/89/17 34/90/17 42/91/17

usemtl merged
v 0.4 1 -2.5
vt 0.4875 0.36363625
vn 1 -2.06449e-014 1.01008e-014
v 0.4 0.546506 -1.35273
vt 0.40371975 0.312103
vt 0.3904645 0.28989875
vt 0.41792425 0.2875
vt 0.41472675 0.26925195
vt 0.43212875 0.262897
vt 0.4875 0.30681825
f 43/92/18 44/93/18 41/94/18 40/95/18 42/96/18 34/97/18 29/98/18

vt 0.2625 0.415786
vn 9.64258e-016 0.929982 0.367605
vt 0.2954545 0.415786
vt 0.2954545 0.4875
vt 0.2625 0.4875
f 37/99/19 44/100/19 43/101/19 38/102/19

usemtl merged
vt 0.2625 0.6321175
vn 3.94029e-014 0.512579 0.85864
vt 0.2625 0.60625775
vt 0.2954545 0.60625775
vt 0.2954545 0.6321175
f 37/103/20 36/104/20 41/105/20 44/106/20

usemtl merged
vt 0.2954545 0.36363625
vt 0.2625 0.36363625
f 43/107/6 30/7/6 38/108/6

f 29/30/6 30/7/6 43/107/6

f 31/68/6 38/108/6 30/7/6

f 31/68/6 32/33/6 38/108/6

