# Alias OBJ Model File
# Exported from SketchUp, (c) 2000-2012 Trimble Navigation Limited
# File units = meters

mtllib merged.mtl

g Mesh1 Wood_Fence_Gate Model

usemtl merged
v 2.88765e-015 0.55 -3
vt 0.2625 0.3125
vn -1.03175e-015 -5.25026e-015 -1
v 0.5 0.55 -3
vt 0.2625 0.3125
v 0.5 0 -3
vt 0.2625 0.2625
v 0 0 -3
vt 0.2625 0.2625
f 1/1/1 2/2/1 3/3/1 4/4/1

vt 0.2625 0.2625
vn -2.56548e-015 0.672673 -0.73994
v 2.88765e-015 1.1 -2.5
vt 0.2625 0.2625
v 0.5 1.1 -2.5
vt 0.2625 0.2625
vt 0.2625 0.2625
f 1/5/2 5/6/2 6/7/2 2/8/2

v 2.88765e-015 0 -2.5
vt 0.2625 0.2625
vn -1 1.05005e-015 -2.43342e-015
vt 0.2625 0.375
vt 0.2625 0.3125
vt 0.2625 0.2625
f 7/9/3 5/10/3 1/11/3 4/12/3

vt 0.2625 0.375
vn 1.03175e-015 0 1
vt 0.2625 0.2625
v 0.5 0 -2.5
vt 0.30681825 0.2625
vt 0.30681825 0.375
f 5/13/4 7/14/4 8/15/4 6/16/4

vt 0.2625 0.4875
vn 0 -1 -0
vt 0.2625 0.4875
vt 0.2625 0.4875
vt 0.2625 0.4875
f 8/17/5 7/18/5 4/19/5 3/20/5

vt 0.4875 0.2625
vn 1 -3.89084e-030 1.85589e-015
vt 0.4875 0.3125
vt 0.4875 0.375
vt 0.4875 0.2625
f 3/21/6 2/22/6 6/23/6 8/24/6

g Mesh2 Wood_Fence_Gate Model

v 0.5 0 -0
vt 0.30681825 0.2625
vn 1.03175e-015 5.25026e-015 1
v 0.5 0.55 -2.88765e-015
vt 0.30681825 0.3125
v 2.88765e-015 0.55 -2.88765e-015
vt 0.2625 0.3125
v 0 0 -0
vt 0.2625 0.2625
f 9/25/7 10/26/7 11/27/7 12/28/7

vt 0.2625 0.2625
vn 1 2.25809e-025 -3.9194e-015
v 0.5 0 -0.5
vt 0.30681825 0.2625
v 0.5 1.1 -0.5
vt 0.2625 0.3125
f 9/29/8 13/30/8 14/16/8 10/31/8

v 0 0 -0.5
vt 0.2625 0.30681825
vt 0.2625 0.30681825
vt 0.2625 0.2625
f 15/32/5 13/33/5 9/34/5 12/28/5

v 0 1.1 -0.5
vt 0.2625 0.375
vn -1.03175e-015 0 -1
vt 0.2625 0.375
vt 0.2625 0.2625
f 16/35/9 14/36/9 13/34/9 15/37/9

vt 0.2625 0.3807125
vn -9.44922e-016 0.672673 0.73994
vt 0.2625 0.29624625
vt 0.30681825 0.29624625
vt 0.30681825 0.3807125
f 16/38/10 11/39/10 10/40/10 14/41/10

vn -1 1.05005e-015 4.49693e-015
vt 0.2625 0.3125
vt 0.2625 0.2625
f 12/28/11 11/42/11 16/36/11 15/43/11

