# Blender v2.76 (sub 0) OBJ File: 'cube.blend'
# www.blender.org
mtllib cube.mtl
o Cube.010_Cube.012
v 1.000000 -1.000000 0.000000
v 1.000000 -1.000000 2.000000
v -1.000000 -1.000000 2.000000
v -1.000000 -1.000000 -0.000000
v 1.000000 1.000000 0.000001
v 0.999999 1.000000 2.000000
v -1.000000 1.000000 2.000000
v -1.000000 1.000000 0.000000
vt 0.349370 0.318224
vt 0.348443 0.016036
vt 0.650630 0.015109
vt 0.983963 0.318224
vt 0.681776 0.317297
vt 0.682703 0.015110
vt 0.318224 0.650630
vt 0.016037 0.651557
vt 0.015110 0.349370
vt 0.984891 0.650630
vt 0.682703 0.651557
vt 0.681776 0.349370
vt 0.349370 0.348443
vt 0.651557 0.349370
vt 0.650630 0.651557
vt 0.016037 0.318224
vt 0.015109 0.016037
vt 0.317297 0.015109
vt 0.651557 0.317297
vt 0.984891 0.016036
vt 0.317297 0.348443
vt 0.983964 0.348443
vt 0.348443 0.650630
vt 0.318224 0.317297
vn 0.000000 -1.000000 0.000000
vn 0.000000 1.000000 0.000000
vn 1.000000 0.000000 0.000000
vn -0.000000 0.000000 1.000000
vn -1.000000 -0.000000 -0.000000
vn 0.000000 0.000000 -1.000000
usemtl Material
s off
f 1/1/1 2/2/1 3/3/1
f 8/4/2 7/5/2 6/6/2
f 5/7/3 6/8/3 2/9/3
f 6/10/4 7/11/4 3/12/4
f 7/13/5 8/14/5 4/15/5
f 1/16/6 4/17/6 8/18/6
f 4/19/1 1/1/1 3/3/1
f 5/20/2 8/4/2 6/6/2
f 1/21/3 5/7/3 2/9/3
f 2/22/4 6/10/4 3/12/4
f 3/23/5 7/13/5 4/15/5
f 5/24/6 1/16/6 8/18/6
