# Blender v2.76 (sub 0) OBJ File: 'Brown_Cliff_01.blend'
# www.blender.org
mtllib Brown_Cliff_01_2.mtl
o Cube.000_Cube.002
v 0.500007 -0.499988 -0.499998
v 0.240007 -0.499988 -0.499998
v 0.240007 0.499986 -0.499998
v 0.500007 0.499986 -0.499998
v 0.360893 -0.499988 0.075029
v 0.240007 -0.499988 -0.141438
v 0.288730 -0.499988 -0.295728
v 0.500007 -0.499988 0.500003
v 0.240007 -0.499988 0.500003
v 0.279656 -0.499988 0.376048
v 0.240007 -0.499988 0.266325
v 0.360893 0.499986 0.075029
v 0.240007 0.499986 -0.141438
v 0.240007 0.499986 0.266326
v 0.279656 0.499986 0.376048
v 0.240007 0.499986 0.500003
v 0.500007 0.499986 0.500003
v 0.288730 0.499986 -0.295728
vt 0.367289 0.600482
vt 0.385016 0.600482
vt 0.385016 0.650482
vt 0.367289 0.650482
vt 0.376774 0.629457
vt 0.385016 0.644216
vt 0.381694 0.654736
vt 0.385016 0.668664
vt 0.367289 0.668664
vt 0.382313 0.608933
vt 0.385016 0.616414
vt 0.354271 0.650482
vt 0.337366 0.650482
vt 0.337366 0.600482
vt 0.354271 0.600482
vt 0.380531 0.629457
vt 0.372289 0.616414
vt 0.374992 0.608933
vt 0.372289 0.600482
vt 0.390016 0.600482
vt 0.390016 0.668664
vt 0.372289 0.668664
vt 0.375611 0.654736
vt 0.372289 0.644216
vt 0.368584 0.650482
vt 0.353155 0.650482
vt 0.353155 0.600482
vt 0.368584 0.600482
vt 0.369460 0.650482
vt 0.361506 0.650482
vt 0.361506 0.600482
vt 0.369460 0.600482
vt 0.380592 0.650482
vt 0.371718 0.650482
vt 0.371718 0.600482
vt 0.380592 0.600482
vt 0.390016 0.650482
vt 0.372289 0.650482
vt 0.446835 0.650482
vt 0.378653 0.650482
vt 0.378653 0.600482
vt 0.446835 0.600482
vt 0.325173 0.650482
vt 0.310855 0.650482
vt 0.310855 0.600482
vt 0.325173 0.600482
vt 0.338865 0.650482
vt 0.327833 0.650482
vt 0.327833 0.600482
vt 0.338865 0.600482
vn 0.000000 0.000000 -1.000000
vn 0.000000 -1.000000 -0.000000
vn -0.873100 -0.000000 0.487600
vn -0.000000 1.000000 0.000000
vn -0.845400 0.000000 -0.534200
vn -0.940500 -0.000000 0.339900
vn -0.952500 0.000000 -0.304700
vn 0.000000 -0.000000 1.000000
vn 1.000000 0.000000 0.000000
vn -0.972700 -0.000000 0.232000
vn -0.953600 0.000000 -0.301100
usemtl Material.001
s 1
f 1/1/1 2/2/1 3/3/1 4/4/1
f 5/5/2 6/6/2 7/7/2 2/8/2 1/9/2 8/1/2 9/2/2 10/10/2 11/11/2
f 12/12/3 13/13/3 6/14/3 5/15/3
f 12/16/4 14/17/4 15/18/4 16/19/4 17/20/4 4/21/4 3/22/4 18/23/4 13/24/4
f 14/25/5 12/26/5 5/27/5 11/28/5
f 15/29/6 14/30/6 11/31/6 10/32/6
f 16/33/7 15/34/7 10/35/7 9/36/7
f 9/19/8 8/20/8 17/37/8 16/38/8
f 4/39/9 17/40/9 8/41/9 1/42/9
f 18/43/10 3/44/10 2/45/10 7/46/10
f 13/47/11 18/48/11 7/49/11 6/50/11
