mtllib Brown_Cliff_01.mtl
g Mesh1 Brown_Cliff Model
v 0.500000 2.200000 -3.000000
v 0.500000 0.000000 -3.000000
v -0.280000 2.200000 -3.000000
v -0.280000 -0.000000 -3.000000
v -0.280000 -0.000000 0.000000
v -0.161050 -0.000000 -0.371864
v 0.500000 0.000000 0.000000
v 0.082659 0.000000 -1.274920
v -0.280000 0.000000 -0.701031
v -0.280000 0.000000 -1.924320
v -0.133829 0.000000 -2.387190
v 0.082659 2.200000 -1.274920
v -0.280000 2.200000 -1.924320
v -0.133829 2.200000 -2.387190
v -0.280000 2.200000 -0.701031
v -0.161050 2.200000 -0.371864
v 0.500000 2.200000 0.000000
v -0.280000 2.200000 0.000000
vt -0.227273 1.000000
vt -0.227273 0.000000
vt 0.127273 1.000000
vt 0.127273 -0.000000
vt 0.127273 -0.000000
vt 0.073205 0.169029
vt -0.227273 0.000000
vt -0.037572 0.579508
vt 0.127273 0.318650
vt 0.127273 0.874689
vt 0.060831 1.085090
vt 0.127273 1.363640
vt -0.227273 1.363640
vt -0.487638 0.000000
vt -0.487638 1.000000
vt -0.825729 1.000000
vt -0.825729 0.000000
vt -0.127273 1.363640
vt -0.060831 1.085090
vt 0.227273 1.363640
vt 0.037572 0.579508
vt -0.127273 0.874689
vt -0.127273 0.318650
vt -0.073205 0.169029
vt 0.227273 0.000000
vt -0.127273 0.000000
vt -0.201382 0.000000
vt -0.201382 1.000000
vt -0.509961 1.000000
vt -0.509961 0.000000
vt -0.183847 -0.000000
vt -0.183847 1.000000
vt -0.342938 1.000000
vt -0.342938 0.000000
vt 0.038776 -0.000000
vt 0.038776 1.000000
vt -0.138690 1.000000
vt -0.138690 -0.000000
vt -0.127273 1.000000
vt -0.127273 -0.000000
vt 0.227273 0.000000
vt 0.227273 1.000000
vt 1.363640 -0.000000
vt 1.363640 1.000000
vt -0.000000 1.000000
vt -0.000000 -0.000000
vt -1.069590 0.000000
vt -1.069590 1.000000
vt -1.355950 1.000000
vt -1.355950 -0.000000
vt -0.795763 0.000000
vt -0.795763 1.000000
vt -1.016400 1.000000
vt -1.016400 -0.000000
vn 0.000000 0.000000 -1.000000
vn 0.000000 0.000000 -1.000000
vn 0.000000 0.000000 -1.000000
vn 0.000000 0.000000 -1.000000
vn -0.000000 -1.000000 -0.000000
vn -0.000000 -1.000000 -0.000000
vn -0.000000 -1.000000 -0.000000
vn -0.000000 -1.000000 -0.000000
vn -0.000000 -1.000000 -0.000000
vn -0.000000 -1.000000 -0.000000
vn -0.000000 -1.000000 -0.000000
vn -0.000000 -1.000000 -0.000000
vn -0.000000 -1.000000 -0.000000
vn -0.871607 -0.000000 0.486753
vn -0.871607 -0.000000 0.486753
vn -0.871607 -0.000000 0.486753
vn -0.871607 -0.000000 0.486753
vn -0.000000 1.000000 0.000000
vn -0.000000 1.000000 0.000000
vn -0.000000 1.000000 0.000000
vn -0.000000 1.000000 0.000000
vn -0.000000 1.000000 0.000000
vn -0.000000 1.000000 0.000000
vn -0.000000 1.000000 0.000000
vn -0.000000 1.000000 0.000000
vn -0.000000 1.000000 0.000000
vn -0.843926 0.000000 -0.533306
vn -0.843926 0.000000 -0.533306
vn -0.843926 0.000000 -0.533306
vn -0.843926 0.000000 -0.533306
vn -0.938890 -0.000000 0.339283
vn -0.938890 -0.000000 0.339283
vn -0.938890 -0.000000 0.339283
vn -0.938890 -0.000000 0.339283
vn -0.950851 -0.000000 -0.304154
vn -0.950851 -0.000000 -0.304154
vn -0.950851 -0.000000 -0.304154
vn -0.950851 -0.000000 -0.304154
vn 0.000000 0.000000 1.000000
vn 0.000000 0.000000 1.000000
vn 0.000000 0.000000 1.000000
vn 0.000000 0.000000 1.000000
vn 1.000000 0.000000 -0.000000
vn 1.000000 0.000000 -0.000000
vn 1.000000 0.000000 -0.000000
vn 1.000000 0.000000 -0.000000
vn -0.971070 0.000000 0.231625
vn -0.971070 0.000000 0.231625
vn -0.971070 0.000000 0.231625
vn -0.971070 0.000000 0.231625
vn -0.951974 0.000000 -0.300622
vn -0.951974 0.000000 -0.300622
vn -0.951974 0.000000 -0.300622
vn -0.951974 0.000000 -0.300622
usemtl Wood
f 1/1/1 2/2/2 3/3/3
f 4/4/4 3/3/3 2/2/2
f 5/5/5 6/6/6 7/7/7
f 8/8/8 6/6/6 9/9/9
f 6/6/6 8/8/8 7/7/7
f 8/8/8 10/10/10 11/11/11
f 11/11/11 4/12/12 2/13/13
f 11/11/11 2/13/13 8/8/8
f 8/8/8 2/13/13 7/7/7
f 8/14/14 12/15/15 13/16/16
f 13/16/16 10/17/17 8/14/14
f 3/18/18 14/19/19 1/20/20
f 12/21/21 14/19/19 13/22/22
f 14/19/19 12/21/21 1/20/20
f 12/21/21 15/23/23 16/24/24
f 17/25/25 16/24/24 18/26/26
f 16/24/24 17/25/25 12/21/21
f 12/21/21 17/25/25 1/20/20
f 9/27/27 15/28/28 12/29/29
f 12/29/29 8/30/30 9/27/27
f 6/31/31 16/32/32 15/33/33
f 15/33/33 9/34/34 6/31/31
f 5/35/35 18/36/36 16/37/37
f 16/37/37 6/38/38 5/35/35
f 18/39/39 5/40/40 7/41/41
f 7/41/41 17/42/42 18/39/39
f 2/43/43 1/44/44 17/45/45
f 17/45/45 7/46/46 2/43/43
f 11/47/47 14/48/48 3/49/49
f 3/49/49 4/50/50 11/47/47
f 10/51/51 13/52/52 14/53/53
f 14/53/53 11/54/54 10/51/51
