mtllib foo.mtl
g Mesh1 Tree Model
v 1.180000 0.000000 -1.180000
v 0.000000 0.000000 -1.180000
v 0.177000 0.600000 -1.003000
v 1.003000 0.600000 -1.003000
v 0.000000 0.000000 0.000000
v 0.177000 0.600000 -0.177000
v 0.082600 0.600000 -0.082600
v 1.097400 0.600000 -0.082600
v 1.003000 0.600000 -0.177000
v 1.180000 0.000000 0.000000
v 0.786697 0.000000 -0.393303
v 0.393303 0.000000 -0.393303
v 0.393303 0.000000 -0.786697
v 0.786697 0.000000 -0.786697
v 1.097400 0.600000 -1.097400
v 0.082600 0.600000 -1.097400
v 0.234820 1.343040 -0.234820
v 0.234820 1.343040 -0.945180
v 0.153636 1.343040 -0.153636
v 1.026360 1.343040 -0.153636
v 0.945180 1.343040 -0.234820
v 0.945180 1.343040 -0.945180
v 1.026360 1.343040 -1.026360
v 0.153636 1.343040 -1.026360
v 0.590000 2.663040 -0.590000
v 0.837838 -0.495868 -0.342162
v 0.837838 -0.495868 -0.837838
v 0.342162 -0.495868 -0.342162
v 0.342162 -0.495868 -0.837838
vt -0.536364 -0.151761
vt 0.000000 -0.151761
vt -0.080454 0.132585
vt -0.455909 0.132585
vt 0.000000 0.000000
vt -0.080454 0.284347
vt -0.536364 0.000000
vt -0.455909 0.284347
vt -0.080454 0.080454
vt -0.037545 0.037545
vt -0.080454 0.455909
vt -0.498818 0.037545
vt -0.455909 0.080454
vt 0.000000 0.000000
vt 0.536364 -0.000000
vt 0.455909 0.284347
vt 0.080454 0.284347
vt 0.080454 0.132585
vt 0.000000 -0.151761
vt 0.536364 -0.151761
vt 0.455909 0.132585
vt -0.536364 0.000000
vt -0.357590 0.178774
vt -0.536364 0.536364
vt -0.178774 0.178774
vt 0.000000 0.000000
vt -0.178774 0.357590
vt 0.000000 0.536364
vt -0.357590 0.357590
vt -0.455909 0.455909
vt -0.498818 0.498818
vt -0.037545 0.498818
vt -0.037545 0.274714
vt -0.106736 0.619473
vt -0.498818 0.274714
vt -0.429627 0.619473
vt -0.106736 0.106736
vt -0.069835 0.069835
vt -0.106736 0.429627
vt -0.466529 0.069835
vt -0.429627 0.106736
vt 0.037545 0.274714
vt 0.498818 0.274714
vt 0.429627 0.619473
vt 0.106736 0.619473
vt 0.106736 0.511829
vt 0.037545 0.167069
vt 0.498818 0.167069
vt 0.429627 0.511829
vt -0.498818 0.167069
vt -0.037545 0.167069
vt -0.106736 0.511829
vt -0.429627 0.511829
vt -0.466529 0.466529
vt -0.429627 0.429627
vt -0.069835 0.466529
vt -0.268182 1.233480
vt -0.466529 0.601542
vt -0.069835 0.601542
vt -0.268182 1.065130
vt -0.466529 0.433192
vt -0.069835 0.433192
vt 0.466529 0.433192
vt 0.268182 1.065130
vt 0.069835 0.433192
vt 0.466529 0.601542
vt 0.268182 1.233480
vt 0.069835 0.601542
vt 0.178774 -0.036685
vt 0.155528 -0.263275
vt 0.357590 -0.036685
vt 0.380836 -0.263275
vt -0.380836 0.155528
vt -0.155528 0.155528
vt -0.155528 0.380836
vt -0.380836 0.380836
vt -0.155528 -0.208249
vt -0.178774 0.018341
vt -0.357590 0.018341
vt -0.380836 -0.208249
vt -0.380836 -0.263275
vt -0.155528 -0.263275
vt -0.178774 -0.036685
vt -0.357590 -0.036685
vt 0.155528 -0.208249
vt 0.380836 -0.208249
vt 0.357590 0.018341
vt 0.178774 0.018341
vn 0.000000 0.282468 -0.957517
vn 0.000000 0.282468 -0.957517
vn 0.000000 0.282468 -0.957517
vn 0.000000 0.282468 -0.957517
vn -0.957517 0.282468 0.000000
vn -0.957517 0.282468 0.000000
vn -0.957517 0.282468 0.000000
vn -0.957517 0.282468 0.000000
vn 0.000000 -1.000000 0.000000
vn 0.000000 -1.000000 0.000000
vn 0.000000 -1.000000 0.000000
vn 0.000000 -1.000000 0.000000
vn 0.000000 -1.000000 0.000000
vn 0.000000 0.282468 0.957517
vn 0.000000 0.282468 0.957517
vn 0.000000 0.282468 0.957517
vn 0.000000 0.282468 0.957517
vn 0.957517 0.282468 0.000000
vn 0.957517 0.282468 0.000000
vn 0.957517 0.282468 0.000000
vn 0.957517 0.282468 0.000000
vn 0.000000 -1.000000 0.000000
vn 0.000000 -1.000000 0.000000
vn 0.000000 -1.000000 0.000000
vn 0.000000 -1.000000 0.000000
vn 0.000000 -1.000000 0.000000
vn 0.000000 -1.000000 0.000000
vn 0.000000 -1.000000 0.000000
vn 0.000000 -1.000000 0.000000
vn 0.000000 -1.000000 0.000000
vn 0.000000 -1.000000 0.000000
vn 0.000000 -1.000000 0.000000
vn -0.978001 0.200354 -0.000000
vn -0.978001 0.200354 -0.000000
vn -0.978001 0.200354 -0.000000
vn -0.978001 0.200354 -0.000000
vn 0.000000 -1.000000 0.000000
vn 0.000000 -1.000000 0.000000
vn 0.000000 -1.000000 0.000000
vn 0.000000 -1.000000 0.000000
vn 0.000000 -1.000000 0.000000
vn -0.000000 0.200354 0.978001
vn -0.000000 0.200354 0.978001
vn -0.000000 0.200354 0.978001
vn -0.000000 0.200354 0.978001
vn 0.978001 0.200354 -0.000000
vn 0.978001 0.200354 -0.000000
vn 0.978001 0.200354 -0.000000
vn 0.978001 0.200354 -0.000000
vn -0.000000 0.200354 -0.978001
vn -0.000000 0.200354 -0.978001
vn -0.000000 0.200354 -0.978001
vn -0.000000 0.200354 -0.978001
vn 0.000000 -1.000000 0.000000
vn 0.000000 -1.000000 0.000000
vn 0.000000 -1.000000 0.000000
vn -0.949465 0.313873 0.000000
vn -0.949465 0.313873 0.000000
vn -0.949465 0.313873 0.000000
vn -0.000000 0.313873 -0.949465
vn -0.000000 0.313873 -0.949465
vn -0.000000 0.313873 -0.949465
vn 0.949465 0.313873 0.000000
vn 0.949465 0.313873 0.000000
vn 0.949465 0.313873 0.000000
vn -0.000000 0.313873 0.949465
vn -0.000000 0.313873 0.949465
vn -0.000000 0.313873 0.949465
vn 0.993045 0.102418 0.000000
vn 0.993045 0.102418 0.000000
vn 0.993045 0.102418 0.000000
vn 0.993045 0.102418 0.000000
vn 0.000000 -1.000000 0.000000
vn 0.000000 -1.000000 0.000000
vn 0.000000 -1.000000 0.000000
vn 0.000000 -1.000000 0.000000
vn -0.993045 0.102418 -0.000000
vn -0.993045 0.102418 -0.000000
vn -0.993045 0.102418 -0.000000
vn -0.993045 0.102418 -0.000000
vn 0.000000 0.102418 -0.993045
vn 0.000000 0.102418 -0.993045
vn 0.000000 0.102418 -0.993045
vn 0.000000 0.102418 -0.993045
vn 0.000000 0.102418 0.993045
vn 0.000000 0.102418 0.993045
vn 0.000000 0.102418 0.993045
vn 0.000000 0.102418 0.993045
usemtl Leafs
f 1/1/1 2/2/2 3/3/3
f 3/3/3 4/4/4 1/1/1
f 5/5/5 6/6/6 2/7/7
f 3/8/8 2/7/7 6/6/6
f 6/9/9 7/10/10 3/11/11
f 7/10/10 6/9/9 8/12/12
f 8/12/12 6/9/9 9/13/13
f 5/14/14 10/15/15 9/16/16
f 9/16/16 6/17/17 5/14/14
f 9/18/18 10/19/19 1/20/20
f 1/20/20 4/21/21 9/18/18
f 10/22/22 11/23/23 1/24/24
f 10/22/22 12/25/25 11/23/23
f 5/26/26 12/25/25 10/22/22
f 12/25/25 5/26/26 13/27/27
f 2/28/28 13/27/27 5/26/26
f 13/27/27 2/28/28 1/24/24
f 13/27/27 1/24/24 14/29/29
f 14/29/29 1/24/24 11/23/23
f 11/23/23 12/25/25 13/27/27
f 13/27/27 14/29/29 11/23/23
f 4/30/30 15/31/31 9/13/13
f 3/11/11 15/31/31 4/30/30
f 3/11/11 16/32/32 15/31/31
f 16/32/32 3/11/11 7/10/10
f 7/33/33 17/34/34 16/35/35
f 18/36/36 16/35/35 17/34/34
f 17/37/37 19/38/38 18/39/39
f 19/38/38 17/37/37 20/40/40
f 20/40/40 17/37/37 21/41/41
f 7/42/42 8/43/43 21/44/44
f 21/44/44 17/45/45 7/42/42
f 21/46/46 8/47/47 15/48/48
f 15/48/48 22/49/49 21/46/46
f 8/12/12 9/13/13 15/31/31
f 15/50/50 16/51/51 18/52/52
f 18/52/52 22/53/53 15/50/50
f 18/39/39 23/54/54 22/55/55
f 18/39/39 24/56/56 23/54/54
f 24/56/56 18/39/39 19/38/38
f 25/57/57 24/58/58 19/59/59
f 25/60/60 23/61/61 24/62/62
f 23/63/63 25/64/64 20/65/65
f 20/66/66 25/67/67 19/68/68
f 20/40/40 21/41/41 23/54/54
f 22/55/55 23/54/54 21/41/41
usemtl Wood
f 11/69/69 26/70/70 14/71/71
f 27/72/72 14/71/71 26/70/70
f 26/73/73 28/74/74 29/75/75
f 29/75/75 27/76/76 26/73/73
f 28/77/77 12/78/78 13/79/79
f 13/79/79 29/80/80 28/77/77
f 27/81/81 29/82/82 13/83/83
f 13/83/83 14/84/84 27/81/81
f 28/85/85 26/86/86 11/87/87
f 11/87/87 12/88/88 28/85/85
